<?xml version="1.0" encoding="utf-8"?>
<!-- Generator: Adobe Illustrator 23.0.5, SVG Export Plug-In . SVG Version: 6.00 Build 0)  -->
<svg version="1.1" id="Layer_1" xmlns="http://www.w3.org/2000/svg" xmlns:xlink="http://www.w3.org/1999/xlink" x="0px" y="0px"
	 viewBox="0 0 512 512" style="enable-background:new 0 0 512 512;" xml:space="preserve">
<style type="text/css">
	.st0{fill:#FFFFFF;}
	.st1{fill:url(#SVGID_1_);}
	.st2{fill:url(#SVGID_2_);}
	.st3{fill:url(#SVGID_3_);}
	.st4{fill:url(#SVGID_4_);}
	.st5{fill:url(#SVGID_5_);}
	.st6{fill:url(#SVGID_6_);}
	.st7{fill:url(#SVGID_7_);}
</style>
<g>
	<path class="st0" d="M298.1,247.8c-0.8,0-1.5-0.3-2-0.9c0,0-0.1-0.1-0.1-0.1c-0.2,0-0.3,0.1-0.4,0.2c-0.8,0.4-1.7,0.7-2.6,0.7l0,0
		c-1.7,0-3-0.9-3.5-2.3c-0.5-1.3-0.4-2.7-0.2-3.9c0-0.3,0.1-0.6,0.1-0.8c0-0.3,0.1-0.5,0.2-0.7c-0.7-1.1-0.7-2.3-0.7-3.1
		c0-0.2,0-0.4,0-0.6c0-1.3,0-2.6,0-3.8c0-0.7,0-1.4,0-2.1l0-0.5c0-1.9,0-4,1-6c0,0,0-0.1,0-0.2c-0.4-2.6,0.4-4.8,1.3-6.9
		c0.4-1.1,1.1-2,1.7-2.7c0.1-0.2,0.2-0.3,0.4-0.5v-1c-1-1.4-0.4-2.8-0.1-3.5c0.1-0.2,0.2-0.5,0.2-0.6c0-0.1,0-0.1,0-0.2
		c-0.6-0.9-0.9-2.4-0.2-4.4c0.5-1.5,0.7-3,0.8-4.6l0-0.6c0-0.5,0.2-1,0.3-1.5c0.2-0.9,0.3-1.4,0-1.9c-0.3-0.6-0.3-1.3,0-1.8
		c0.8-1.9,0.8-3.9,0.6-5.8c-0.1-1.3,0.7-2.9,1.7-3.6c0.2-0.1,0.5-0.4,0.6-0.4c-0.5-0.3-0.9-0.6-1.3-1.1c-0.6-0.9-0.8-2-0.4-3.2
		c-0.1-0.2-0.1-0.4-0.1-0.6l0-0.2c-0.1-0.5-0.1-1.1-0.1-1.8c0-0.4,0.1-0.8,0.2-1.1c0.1-0.3,0.1-0.6,0.1-0.8c0-0.6,0-1.3,0-1.9
		c0-0.3,0-0.7,0-1c0-0.1,0-0.2,0-0.3c-0.6-1.9-0.2-3.6,0.2-5.2c0-0.1,0-0.2,0-0.3c-0.9-1.5-0.6-2.9-0.4-3.6c0.2-0.8,0.4-1.6,0.4-2.4
		c0.1-3.8,3.5-7,7.3-7.1c0.1,0,0.2,0,0.3,0c2.3,0,4.5,0.7,7,2.2c0.7,0.4,1,1,1.2,1.4c0.1,0.1,0.2,0.3,0.2,0.4c1.9,2.4,2.1,5.3,2,7.7
		l0,0.2c0,0.1,0,0.2,0,0.3c0.1,2.8,0,5.7-0.1,8.4c-0.1,2.3-0.2,4.7-0.1,7c0,0.9-0.3,1.7-0.5,2.4c-0.1,0.3-0.2,0.6-0.3,0.9
		c0,0,0,0.1,0,0.5c0.1,0.3,0.1,0.6,0.2,0.8c0.2,0.7,0.4,1.5,0.4,2.3c-0.2,3.4-0.5,6.8-0.8,10.2l-0.3,3.2c-0.3,3.2-0.6,6.6-0.9,9.8
		c-0.2,1.4-0.6,2.6-1.1,3.9c0,0-0.1,0.2-0.1,0.2c0,0,0,0.1,0,0.1c0.4,1.1,0.4,2.2,0.5,3.1c0,1.5,0,2.8-0.1,3.9
		c-0.1,0.8-0.3,1.4-0.4,2.1c-0.1,0.2-0.1,0.4-0.2,0.6c-0.1,0.2-0.1,0.4-0.2,0.6c0,0.1-0.1,0.2-0.1,0.2c-0.2,2.8-1.2,5.4-2.3,7.8
		c-0.3,0.7-0.6,1.5-0.9,2.2c-0.6,1.5-1.5,2.9-2.4,4.2c-0.4,0.6-0.8,1.1-1.1,1.7c0,0.1-0.1,0.2-0.2,0.4c0,0.1-0.4,1-0.4,1
		c-0.2,0.6-0.5,1.2-0.7,1.7c-0.2,0.4-0.4,0.7-0.6,1.1c-0.1,0.3-0.3,0.5-0.4,0.8C300.2,247.2,299.2,247.8,298.1,247.8z"/>
	<linearGradient id="SVGID_1_" gradientUnits="userSpaceOnUse" x1="290.3178" y1="200.3717" x2="312.0247" y2="200.3717">
		<stop  offset="3.852100e-04" style="stop-color:#8E6C48"/>
		<stop  offset="0.9996" style="stop-color:#ECC383"/>
	</linearGradient>
	<path class="st1" d="M290.3,236.1c0,1.4-0.3,3,1.5,3.8c-0.5,0.3-1,0.6-1.1,0.8c-0.1,1.3-0.4,2.9,0.1,4c0.6,1.5,2.4,1.6,3.9,0.8
		c0.5-0.3,1.2-0.4,1.8-0.5c0.2,0,0.4,0.5,0.6,0.8c0.5,0.6,1.6,0.4,1.9-0.3c0.3-0.6,0.7-1.2,1-1.8c0.4-0.8,0.6-1.6,1-2.3
		c0.1-0.3,0.2-0.6,0.4-0.9c1.1-1.9,2.6-3.6,3.4-5.6c1.2-3.1,2.9-6.1,3.1-9.6c0-0.4,0.2-0.7,0.3-1.1c0.2-0.8,0.5-1.7,0.6-2.5
		c0.1-1.2,0.1-2.5,0.1-3.7c0-0.9-0.1-1.8-0.4-2.6c-0.2-0.5-0.2-0.8,0-1.3c0.4-1.2,0.9-2.4,1-3.6c0.4-3.8,0.7-7.6,1.1-11.4
		c0.3-3.9,0.7-7.8,0.9-11.7c0.1-0.9-0.4-1.9-0.6-2.8c-0.1-0.4-0.1-0.8,0-1.1c0.2-1,0.7-1.9,0.7-2.9c-0.1-5.1,0.4-10.2,0.2-15.3
		c0-0.2,0-0.4,0-0.6c0.1-2.4-0.1-4.7-1.6-6.7c-0.4-0.5-0.6-1.2-1-1.4c-2-1.2-4-2-6.4-2c-2.9,0.1-5.7,2.7-5.8,5.6
		c0,0.9-0.2,1.9-0.5,2.8c-0.2,0.8-0.3,1.6,0.2,2.4c0.2,0.4,0.3,1,0.2,1.4c-0.4,1.6-0.7,3.1-0.1,4.7c0,0.1,0,0.3,0,0.4
		c0,1,0.1,2,0.1,3c0,0.7-0.2,1.3-0.3,2c0,0.6,0,1.1,0.1,1.7c0,0.3,0.3,0.6,0.2,0.9c-0.6,1.7,0.3,3.1,2.1,3.1c0.3,0,0.7,0,1,0
		c0.9,0.1,1.8,0.2,2.7,0.4c0,0.1,0,0.3,0,0.4c-0.3,0-0.5,0.2-0.8,0.1c-1.9-0.2-3.2,1-4.6,1.9c-0.6,0.4-1.1,1.4-1,2.2
		c0.2,2.3,0.2,4.5-0.7,6.6c-0.1,0.1-0.1,0.3,0,0.4c0.8,1.5,0,2.8-0.1,4.3c-0.2,1.9-0.3,3.7-0.9,5.6c-0.4,1-0.6,2.4,0.3,3.4
		c0.1,0.1-0.1,0.5-0.1,0.7c-0.1,1.1-1.4,2.1-0.1,3.3c0,0,0,0.1,0,0.2c0,0.6,0,1.2,0,1.9c-0.7,1-1.7,2.1-2.2,3.3
		c-0.8,1.9-1.5,3.9-1.2,6.1c0.1,0.4,0,0.8-0.1,1.1c-0.9,1.8-0.8,3.8-0.8,5.8C290.4,232.2,290.3,234.2,290.3,236.1z"/>
	<path class="st0" d="M301,367.1c-4.7-0.2-9.4-0.4-14.1-0.5c-0.4,0-1.1,0-1.7-0.4c-0.7-0.4-1.4-0.6-2.4-0.6c-0.7,0-1.4,0.1-2.2,0.2
		l-1.7,0.2c-1.7,0.2-3.5,0.4-5.4,0.5l-0.2,0c-1.3,0-2.5-0.4-3.3-0.8c-1.3-0.5-1.7-1.3-1.9-1.9c0-0.1,0-0.1-0.1-0.2
		c-0.4,0-0.7,0-1-0.1c0,0-0.5,0-0.6,0c-0.3,0-1,0-1.7-0.5c-1-0.8-2.3-1.3-3.6-1.8l-0.7-0.3l-0.4-0.1c-0.5-0.2-0.9-0.4-1.2-0.4
		c-0.1,0-0.3,0-0.4,0.1c-0.9,0.3-1.6,0.4-2.3,0.4c-1.3,0-2.5-0.5-3.5-1.5c-0.7-0.6-1.7-1-3-1.1c-1.5-0.1-2.9-0.6-4.2-1
		c-0.6-0.2-1.2-0.4-1.8-0.6c-0.7-0.2-1.5-0.3-2.1-0.4c-2.2-0.3-4-1.3-5.8-2.3c-0.5-0.3-1-0.6-1.5-0.8c-1.7-0.9-3.6-2-5.7-3.5
		c-1.4-1-2.7-2.1-4.1-3.1c-0.5-0.4-1-0.8-1.5-1.2c-2.8-0.6-4.1-2.9-5.2-4.7c-0.2-0.4-0.5-0.9-0.8-1.3c-0.7-1.1-1-2.4-1.2-3.5
		l-0.1-0.3c0-0.2-0.1-0.3-0.1-0.4c0,0,0,0,0,0c-2.2-0.4-4.1-1.4-5.8-3.1c-0.3-0.3-0.6-0.5-0.9-0.8c-0.4-0.3-0.8-0.7-1.2-1.1
		c-0.8-0.9-1.1-1.9-0.8-2.9c-0.3,0.1-0.6,0.2-1,0.2c-0.8,0-1.6-0.3-2.6-1.1c-0.6-0.5-1-1-1.3-1.5c-0.2-0.3-0.4-0.5-0.5-0.7
		c-0.2-0.2-0.5-0.4-0.8-0.6c-0.2-0.1-0.4-0.3-0.6-0.4c-0.5-0.4-0.7-1-0.6-1.6c-0.3-0.3-0.7-0.6-1-0.9c-4.5-1.3-8.3-3.7-11.7-6.1
		c-0.3-0.2-0.8-0.4-1.3-0.5c-0.6-0.2-1.2-0.4-1.9-0.8c-0.4-0.3-0.9-0.5-1.3-0.7c-1.4-0.7-3-1.5-4.1-3.1c-2.3-0.9-4.1-2.3-5.9-3.7
		c-0.4-0.3-0.8-0.6-1.2-0.9l-1.5-1.1c-2.5-1.9-5.1-3.9-7.8-5.6c-1.6-1.1-2.9-2.4-4.2-3.7c-0.8-0.8-1.5-1.6-2.3-2.3
		c-1-0.9-1.6-1.9-1.9-3.2c-2.4-2.4-2.3-5.4-2.3-8l0-0.2c0-1.9,2.4-3.9,3.8-4.3c0.4-0.1,0.7-0.3,0.7-0.3c0.9-1.1,2.1-1.6,3.4-1.6
		c0.6,0,1.1,0.1,1.7,0.3c1.4,0.5,2.7,1.3,3.9,2c0.8,0.5,1.2,1.5,1.4,2.2c0,0,0,0.1,0,0.1c0.5-0.4,1-0.5,1.6-0.5
		c0.9,0,1.7,0.5,2.2,1.6c0.2,0.3,0.4,0.7,0.6,0.9c0.7,0.9,1,1.8,0.8,2.7c0.4,0.3,0.8,0.7,1,1c0.6,1,0.9,1,1.2,1l0.1,0
		c0.1,0,0.2,0,0.3,0c1.4,0,2.7,0.5,3.7,1.6c0.6,0.6,1.3,0.9,2.3,0.9c0.1,0,0.2,0,0.3,0c0.1,0,0.3,0,0.4,0c2.4,0,4.5,1.1,6.2,3.3
		c0.3,0.4,0.6,1,0.6,1.7c2.1,0.9,2.6,1.7,2.1,3.6c0.2,0,0.3,0.1,0.5,0.2c0.2,0.1,0.3,0.1,0.5,0.2c0.3,0.1,0.7,0.2,1,0.3
		c0.5,0.2,1.1,0.4,1.4,0.4c0.2,0,0.3,0,0.5,0c2.2,0,3.7,1.2,4.9,2.1c0.2,0.1,0.4,0.3,0.5,0.4c0.9,0.7,1.7,1.5,2.4,2.2
		c0.3,0.4,0.7,0.7,1,1c0.1,0.1,0.1,0.1,0.2,0.1c0.7,0.2,1.2,0.6,1.6,1c0.6-0.1,1.1-0.1,1.6-0.1c1.6,0,3,0.3,4.3,0.9
		c0.3,0.1,0.7,0.2,1.1,0.2c0.6,0,1.3-0.2,1.6-0.4c1.7-1.3,4.1-2.9,7-3.4c0.2,0,0.5-0.1,0.7-0.1c0.5,0,0.9,0.1,1.3,0.1
		c0.3,0,0.6,0.1,0.8,0.1c1.5,0,2.5-0.5,3.2-1.4c0.7-0.9,1.7-1.8,3-2.6c0.7-0.5,1.1-1,1.3-1.8c0.2-0.6,0.4-1.1,0.6-1.6
		c0.1-0.3,0.3-0.5,0.4-0.8c0.2-0.6,0.4-1.1,0.6-1.7c0.4-1.2,0.8-2.5,1.4-3.7c0.7-1.2,0.8-2.6,1-4c0.1-0.9,0.2-1.7,0.5-2.6
		c0.2-0.9,0.2-1.9,0.3-3l0-0.6c0-0.1-0.1-0.4-0.1-0.4c-0.3-0.4-0.6-0.7-0.9-1.1c-0.6-0.7-1.2-1.4-1.7-2.3c-0.2-0.4-0.4-0.7-0.6-1.1
		c-0.9-1.7-2.1-3.8-1.5-6.6c0.2-1,0.1-2.1,0-3.3c0-0.6-0.1-1.2-0.1-1.8c0-0.3,0-0.6,0-0.9c0-0.6,0-1.1-0.1-1.6
		c-0.4-2.3,0.5-4.2,2.4-5.4c1.1-0.7,2.4-1,3.6-1.2c1.3-0.2,2.6-0.4,3.8-0.5c0.9-0.1,1.7-0.2,2.6-0.4c0.2,0,0.4-0.1,0.6-0.1
		c-0.1-0.1-0.2-0.1-0.3-0.2c-0.2-0.1-0.5-0.3-0.7-0.4c-0.1-0.1-0.2-0.1-0.3-0.2c-0.4-0.2-0.9-0.5-1.4-1c-0.3-0.4-0.7-0.5-1.8-0.5
		l-0.2,0c-0.5,0-0.9-0.1-1.4-0.2c-0.2,0-0.5-0.1-0.7-0.1c-0.3,0-0.5-0.1-0.8-0.1c-0.4-0.1-0.8-0.1-1.1-0.1c-0.1,0-0.2,0-0.3,0
		c-0.3,0-0.6,0.1-0.8,0.1c-2.3,0-3.9-1.4-5.1-2.6l-0.4-0.3c-0.1-0.1-0.2-0.2-0.3-0.2c-3-0.5-4.6-2.7-5.8-4.5
		c-0.2-0.3-0.4-0.5-0.5-0.8c-0.8-1.2-0.2-2.9-0.1-3c0.6-1.3,0.6-2.6,0.5-3.9c0,0,0,0-0.1,0c-3.2,0-6.4-3-6.6-6c0-0.3,0-0.5,0-0.8
		c0-0.3,0-0.5,0-0.8c0-0.2-0.1-0.3-0.8-0.7c-0.5-0.3-1-0.5-1.4-1c-1.5-1.5-2.1-2.6-1.4-4.3c-1.1-1.2-1.4-2.7-1.6-3.8
		c0-0.4-0.3-0.9-0.6-1.5c-0.2-0.3-0.4-0.7-0.5-1c0-0.1-0.1-0.1-0.1-0.2c-0.1-0.3-0.3-0.6-0.4-1.1c-0.1-0.4-0.1-0.7-0.2-1.1
		c-0.2-1.1-0.5-2.2-0.5-3.4c0-1.6,0.2-3.4,0.7-5.3c0-0.1,0.1-0.3,0.1-0.4c-1.1-1.5-0.7-3-0.5-3.7c-1.9-0.5-3.6-2.7-3.6-4.6
		c0-0.6,0.2-1.2,0.6-1.7c0.1-0.1,0.2-0.2,0.2-0.3c-0.1,0-0.1-0.1-0.2-0.2c-0.9-0.5-1.6-1.4-1.7-2.4c-0.2-1,0.1-2.1,0.8-3
		c-0.1-0.8-0.3-1.5-0.4-2.3c-0.3-1.7-0.6-3.4-0.7-5.1c-0.1-2,0.1-4.3,0.7-6.7c0.4-1.6,1.9-2.7,2.7-3.3c1-0.6,2.2-1,3.2-1.2l0.4-0.1
		c0.6-0.2,1.2-0.3,1.8-0.3c3.6,0,6.5,3.1,6.5,7c0,0.2,0.2,0.7,0.3,1c0.1,0.3,0.3,0.6,0.4,0.9c0.2,0.5,0.3,1,0.5,1.6
		c0.4,1.3,0.9,2.7,1.3,4c0.4,1.3,0.6,2.7,0.9,4c0.1,0.6,0.3,1.2,0.4,1.9c0,0.1,0.1,0.2,0.1,0.3c0.1,0.3,0.2,0.7,0.2,1.2l0,0.1
		c0,0.7,0,1.5-0.3,2.4c-0.2,0.4-0.2,0.4,0,0.6c0.6,0.8,1,1.7,1.4,2.5l0.1,0.1c0.4,1,0.9,2,1.3,3c0.3,0.8,0.7,1.6,1,2.3
		c0.3,0.7,0.6,1.3,0.9,2c0.5,1.1,1,2.1,1.4,3.2l0.1,0.4c0.9,2.4,1.9,4.8,2.7,7.3c0.3,1-0.1,2-0.5,2.7c-0.1,0.2-0.2,0.5-0.3,0.7
		c2.7,0.1,3.9,2.4,4.2,3.1l0.3,0.6c0.8,1.6,1.6,3.2,2.3,4.8c0.7,1.5,1.3,3.1,1.9,4.6c0.5,1.2,0.9,2.3,1.4,3.5c0.2,0.5,0.5,1,0.9,1.6
		l0.9,1.4c0.9,1.5,1.8,3,2.8,4.4c0.9,1.4,2,2.7,3.1,3.8c0.1,0.1,0.5,0.3,0.8,0.4l0.3,0.1c0.9,0.5,1.9,0.9,3,1.4
		c0.1,0.1,0.2,0.1,0.4,0.2c0.1,0,0.2,0.1,0.3,0.2c0.2,0,0.5-0.1,0.7-0.1c1.1,0,1.9,0.5,2.6,0.9c0.1,0.1,0.3,0.2,0.4,0.2
		c0.7,0.4,1.5,0.7,2.2,0.8l0.5,0.1c1.3,0.3,2.8,0.5,4.2,1.7c0.3-0.1,0.6-0.1,0.9-0.1c0.7,0,2,0.3,2.4,2.3c0,0.2,0.1,0.4,0.1,0.7
		c0,0.1,0,0.2,0,0.2c0,0,0,0,0,0c0.8,0.3,1.5,0.6,2.2,0.6c0,0,0,0,0,0c0.4,0,0.9-0.2,1.3-0.4l0.5-0.2c0.7-0.3,1.4-0.5,1.9-0.9
		c0.7-0.5,1.4-0.7,2-1c1.2-0.4,1.3-0.5,1.4-1c0.2-0.9,1.1-1.6,1.9-1.7l0.2,0c1.1-0.2,2.3-0.3,3.5-0.4c0.2,0,0.4,0,0.7,0
		c1,0,2.3,0.1,3.4,0.9c0.4-0.4,1-1,1.9-1c0.3,0,0.7,0.1,1,0.3c0.4-0.2,0.8-0.4,1.3-0.4c0.7,0,1.4,0.3,1.9,0.6c0.1,0,0.2,0,0.3,0
		c1,0,2.4,0.4,3.1,2.5c0.2,0.1,0.5,0.2,0.9,0.2c0.1,0,0.1,0,0.2,0c0.3-0.1,0.5-0.1,0.8-0.1c1.1,0,2,0.5,2.6,1.1
		c0.3,0.3,0.9,0.5,1.5,0.5c0.9,0.1,2,0.2,2.7,1c0.1,0.2,0.3,0.4,0.4,0.7l0.2,0.1c0.8,0.3,1.6,0.5,2.3,0.8c0.3,0.1,0.6,0.1,0.9,0.2
		c0.4,0.1,0.8,0.2,1.3,0.3l0.6,0.2c1,0.3,2.1,0.7,3.2,1.2c0.4,0.2,0.8,0.5,1.1,0.7c0.7,0.4,1.1,0.7,1.6,0.7c0.8,0,1.4,0.6,1.8,1.1
		c0-0.4,0.1-0.8,0.3-1.2c0.3-0.4,0.7-0.6,1.2-0.6c0.1,0,0.2,0,0.3,0c0,0,0.5,0.1,0.7,0.1l0-0.1c-0.2-0.4-0.4-0.9-0.3-1.4
		c0-0.4,0.2-1,0.8-1.6c0.6-1.8,1.3-3.7,1.9-5.5c0.5-1.6,1.7-2.4,2.7-3.1c0.3-0.2,0.6-0.4,0.9-0.6c0,0,0.2-0.2,0.3-0.3
		c0.3-2.6,2.3-3.6,3.6-4.3c0.3-0.1,0.5-0.3,0.8-0.4c0.1-0.1,0.2-0.1,0.3-0.1c0-0.2,0-0.4,0-0.5c0.1-0.8,0.5-1.4,1.4-1.9
		c0.8-0.5,1.6-0.9,2.4-1.2c-0.1-0.2-0.2-0.3-0.4-0.4c-1.2-1.3-1.8-2.5-0.6-4.5c1.2-1.9,1.9-3.9,2.2-5.8c0.3-2.1,1.8-3.5,3-4.7
		c0.2-0.2,0.4-0.4,0.6-0.6c0.2-0.2,0.3-0.3,0.5-0.4c-0.1-0.2-0.2-0.4-0.2-0.6c-0.1-0.9-0.2-1.8-0.3-2.7l0-0.1c0-0.2,0-0.3,0-0.5
		c-0.5-1.4-0.2-2.8,0.1-3.9c0.2-0.8,0.3-1.4,0.2-2c-0.1-0.7,0.1-1.3,0.3-1.7c0-0.1,0.1-0.1,0.1-0.2c0.1-0.2,0.2-0.5,0.2-0.7
		c0.1-0.2,0.2-0.5,0.2-0.6c-0.3-2.1,0-4.1,0.9-6.4c1.5-3.6,3.5-6,6.3-7.4c0.9-0.4,1.9-0.7,2.9-0.7c1.7,0,3.5,0.7,4.9,1.9
		c1.3,1.1,2.5,2.5,3.9,4.3c0.6,0.9,1,2.2,0.9,3.3c-0.2,2.1-0.4,4.5-0.9,6.9c-0.7,3.1-1.5,6.3-2.4,9.4c-0.4,1.4-1,2.7-1.6,4
		c-0.2,0.6-0.5,1.1-0.7,1.7c-0.1,0.1-0.1,0.3-0.2,0.4c0,0.1-0.1,0.1-0.1,0.2c-0.1,2.3-0.9,4.4-1.7,6.3c-0.4,0.9-0.7,1.7-1,2.6
		c-0.9,2.9-1.8,5.2-2.7,7.2c-0.6,1.2-1.4,2.3-2.1,3.3c-0.3,0.4-0.6,0.9-0.9,1.3c-0.1,0.1-0.2,0.2-0.2,0.3c0,0,0,0.1-0.1,0.1
		c-0.2,2.1-1.1,3.8-2,5.3c-0.3,0.5-0.6,1-0.8,1.5c-0.3,0.7-0.7,1.4-1,2c-0.7,1.4-1.3,2.7-2,4.1c-0.2,0.4-0.4,0.7-0.6,1.1
		c-0.7,1.3-1.3,2.7-2.3,3.9l-0.1,0.1c-1.2,1.5-2.6,3.3-4.8,4.4c-0.1,0.1-0.4,0.4-0.6,0.7l0,0c0.3,0.6,0.7,1.1,1,1.5
		c1.3,1.4,1.5,3,1.5,4.6c0,1.7-0.1,3.5-0.1,5.2c0,2.3-0.1,4.5-0.1,6.8c0,0.6,0,1.1,0.1,1.7c0,0.5,0,0.9,0.1,1.4c0,0.2,0,0.3,0,0.5
		c0.1,0.9,0.1,2.1-0.7,3.3c0.5,1.2,0.4,2.4,0.4,3.5c0,0.5,0,0.9,0,1.3c0.3,3.8,0.5,6.9,0.5,10.2c0,1.9-0.5,3.8-1,5.6
		c-1.1,3.7-1.7,6.8-2,9.8c-0.1,1-0.2,2.1-0.4,3.1c-0.1,0.8-0.2,1.6-0.3,2.4c-0.4,4.2-2.2,7.8-3.9,11.3c-0.4,0.8-0.8,1.6-1.2,2.5
		c-0.4,0.8-0.8,1.6-1.2,2.3c-0.3,0.5-0.6,1.1-0.9,1.6c-0.3,0.6-0.5,1.1-0.8,1.7c-0.4,0.8-0.8,1.7-1.2,2.5l-0.1,0.1
		c-1,1.8-2.1,3.6-3.9,5c-0.8,0.6-1.5,1.4-2.3,2.2c-0.4,0.5-0.8,0.9-1.3,1.3c-0.5,0.5-1,0.9-1.6,1.3c-2.2,1.4-4.7,2.4-7.5,3.1
		c-0.5,0.9-1.4,1.7-3.2,1.7L301,367.1z M209.2,321c0.4,1.3,0.2,2.4-0.2,3.3c0.4-0.2,0.8-0.3,1.1-0.4c0.3-0.1,0.6-0.1,0.9-0.2
		c0.2,0,0.5-0.1,0.5-0.1c0.4-0.2,0.9-0.4,1.3-0.7c0.7-0.4,1.5-0.8,2.3-1.1c1-0.3,2-0.5,3-0.6c0.2,0,0.5-0.1,0.7-0.1
		c0.2-0.2,0.4-0.6,0.5-0.8c0.1-0.7,0.4-1.5,0.9-2.2c-0.2,0-0.3,0-0.4,0c-0.2,0-0.3,0-0.5,0c-0.1,0-0.2,0-0.3,0c-0.2,0-0.5,0-0.9,0.4
		c-0.4,0.3-0.9,0.4-1.4,0.4c-0.5,0-1-0.1-1.4-0.2c0,0-0.1,0-0.1,0c0.1,0.2,0.2,0.5,0.2,0.6c0.2,0.7,0,1.4-0.6,1.8
		c-0.5,0.3-1,0.5-1.6,0.5c-0.7,0-1.3-0.3-1.9-0.8c-0.5-0.5-1.1-0.9-1.8-1.5c-0.1,0.4-0.1,0.7-0.2,1.1
		C209.2,320.7,209.2,320.8,209.2,321z"/>
	<linearGradient id="SVGID_2_" gradientUnits="userSpaceOnUse" x1="152.5294" y1="267.184" x2="358.3938" y2="267.184">
		<stop  offset="3.852100e-04" style="stop-color:#8E6C48"/>
		<stop  offset="0.9996" style="stop-color:#ECC383"/>
	</linearGradient>
	<path class="st2" d="M357.8,200.4c-1.1-1.5-2.3-2.9-3.7-4.1c-1.8-1.6-4.1-2-6.1-1c-2.7,1.3-4.4,3.7-5.5,6.5
		c-0.7,1.9-1.1,3.7-0.8,5.6c0.1,0.6-0.3,1.3-0.5,1.9c-0.1,0.4-0.4,0.8-0.4,1.2c0.4,2.1-1.2,4-0.2,6.1c0,0.1-0.1,0.3-0.1,0.4
		c0.1,0.9,0.2,1.8,0.3,2.8c0,0.2,0.3,0.3,0.5,0.5c0.5,0.4,0.9,0.8,1.6,1.4c-0.7,0.1-1.2,0.2-1.6,0.2c-0.4,0.1-1,0-1.2,0.2
		c-1.3,1.3-2.9,2.5-3.2,4.4c-0.4,2.4-1.2,4.4-2.4,6.4c-0.7,1.1-0.5,1.6,0.4,2.6c0.6,0.6,1.1,1.4,1.6,2.1c-1.5,0.7-2.8,1.3-4,2
		c-0.9,0.5-0.8,1,0,1.6c0.4,0.3,0.5,0.8,0.8,1.3c-0.1,0.1-0.2,0.2-0.3,0.3c-0.2-0.1-0.5-0.3-0.7-0.3c-0.5-0.1-1.1-0.4-1.4-0.2
		c-1.6,0.9-3.5,1.5-3.6,3.9c0,0.3-0.5,0.7-0.8,1c-1.1,1-2.6,1.5-3.1,3.1c-0.7,1.9-1.3,3.9-2,5.8c0,0.1,0,0.2-0.1,0.2
		c-1,0.7-0.4,1.3,0.1,1.9c-0.4,0.7-0.8,1.4-1.2,2.1c-0.2-0.1-0.3-0.2-0.4-0.2c-0.4-0.1-0.9-0.2-1.3-0.2c0.2,0.4,0.3,0.9,0.5,1.3
		c0.3,0.4,0.8,0.6,1.3,0.9c-0.7,0.7-3.6,0.8-4,0.2c-0.2-0.2-0.1-0.6-0.3-0.8c-0.2-0.3-0.6-0.9-0.9-0.9c-1.4,0-2.3-1-3.4-1.6
		c-1.1-0.6-2.4-0.9-3.6-1.3c-0.7-0.2-1.4-0.3-2.1-0.5c-1.1-0.3-2.2-0.7-3.4-1.1c0.1-1-0.7-1.2-1.8-1.3c-0.8,0-1.7-0.3-2.4-0.8
		c-0.7-0.5-1.3-0.8-2.1-0.7c-1.1,0.2-2.6-0.4-2.7-1.1c-0.3-1.1-0.9-1.8-2.1-1.5c-0.2,0-0.4-0.1-0.5-0.2c-1.2-0.7-1.7-0.6-2.7,0.6
		c-0.5-1.2-1.1-1.3-1.8-0.3c-0.2,0.3-0.7,0.4-1.1,0.7c-1-1.3-2.4-1.4-3.8-1.3c-1.2,0.1-2.4,0.2-3.6,0.4c-0.2,0-0.5,0.3-0.6,0.5
		c-0.4,2.2-2.7,1.9-4,2.9c-0.8,0.6-1.7,0.9-2.6,1.3c-0.7,0.3-1.5,0.6-2.2,0.5c-1-0.1-2-0.5-2.9-0.8c-0.3-0.1-0.5-0.5-0.6-0.9
		c-0.1-0.3-0.1-0.8-0.2-1.1c-0.1-0.7-0.4-1.2-1.3-0.9c-0.4,0.1-1.1,0.1-1.4-0.2c-1.2-1.1-2.6-1.3-4.1-1.6c-0.9-0.2-1.8-0.5-2.6-1
		c-0.9-0.5-1.7-1.1-2.8-0.8c-0.4,0.1-1-0.3-1.5-0.5c-1-0.5-2.1-0.9-3.1-1.4c-0.5-0.3-1.1-0.5-1.5-1c-1.1-1.3-2.2-2.6-3.2-4
		c-1.3-1.9-2.5-3.9-3.7-5.8c-0.4-0.6-0.8-1.2-1-1.9c-1.1-2.7-2.2-5.4-3.3-8.1c-0.8-1.8-1.7-3.6-2.5-5.3c-0.7-1.4-1.6-2.4-3.3-2.2
		c-0.4,0-1.1-0.3-1.3-0.6c-0.2-0.3,0.1-0.9,0.3-1.4c0.3-0.8,1-1.8,0.7-2.5c-0.8-2.6-1.8-5.1-2.8-7.5c-0.7-1.7-1.5-3.4-2.3-5.2
		c-0.8-1.8-1.5-3.6-2.3-5.3c-0.4-0.8-0.7-1.7-1.3-2.4c-0.6-0.8-0.6-1.4-0.2-2.2c0.2-0.5,0.2-1.2,0.2-1.8c0-0.4-0.2-0.8-0.3-1.2
		c-0.4-1.9-0.8-3.9-1.3-5.8c-0.5-1.9-1.2-3.7-1.7-5.5c-0.3-0.8-0.8-1.6-0.8-2.5c0-3.2-2.8-6.2-6.3-5.2c-1.1,0.3-2.3,0.6-3.2,1.2
		c-0.8,0.5-1.8,1.4-2,2.3c-0.5,2-0.7,4.2-0.6,6.3c0.1,2.5,0.8,5,1.2,7.5c0,0.3-0.1,0.7-0.3,1c-0.9,1-0.7,2.4,0.4,3
		c1.3,0.8,1.5,1.6,0.5,2.8c-0.2,0.2-0.3,0.5-0.3,0.7c0,1.2,1.4,2.9,2.6,3.1c1.5,0.3,1.6,0.4,1,1.7c-0.4,1-0.4,1.8,0.2,2.7
		c0.4,0.5,0.2,0.9,0.1,1.5c-0.4,1.6-0.7,3.3-0.7,5c0,1.4,0.4,2.8,0.7,4.2c0.1,0.3,0.3,0.6,0.4,0.9c0.5,1,1.2,2,1.3,3
		c0.2,1.6,0.7,2.8,2,3.6c-1.1,1.7-1,2.2,0.5,3.6c0.9,0.9,2.6,1,2.7,2.7c0,0.6,0,1.1,0,1.7c0.1,2.4,3.1,4.8,5.5,4.4
		c0.7-0.1,1,0.1,1,0.8c0.2,1.8,0.2,3.6-0.6,5.4c-0.2,0.4-0.3,1.2-0.1,1.5c1.4,2,2.6,4.3,5.4,4.7c0.4,0,0.7,0.4,1,0.6
		c1.4,1.3,2.8,2.8,5,2.5c0.8-0.1,1.6,0.1,2.5,0.2c0.7,0.1,1.3,0.2,2,0.2c1.2,0.1,2.3,0,3.1,1.1c0.3,0.4,0.9,0.6,1.3,0.8
		c0.7,0.5,1.5,0.8,2.2,1.4c0.6,0.5,0.4,1.5-0.3,1.7c-0.6,0.2-1.3,0.4-2,0.5c-2.1,0.3-4.3,0.5-6.4,0.9c-1.1,0.2-2.2,0.4-3.1,1
		c-1.3,0.8-1.9,2.1-1.7,3.8c0.1,0.9,0.1,1.7,0.1,2.6c0,1.8,0.4,3.8,0,5.5c-0.6,2.7,0.9,4.6,1.9,6.6c0.6,1.2,1.7,2.1,2.5,3.2
		c0.3,0.4,0.4,0.9,0.4,1.4c0,1.3,0,2.7-0.3,3.9c-0.6,2.3-0.4,4.8-1.6,7c-0.9,1.6-1.3,3.5-1.9,5.2c-0.3,0.7-0.7,1.4-0.9,2.2
		c-0.3,1.2-0.9,2-1.9,2.7c-1,0.6-1.9,1.4-2.6,2.3c-1.2,1.4-2.7,1.9-4.4,2c-0.9,0-1.8-0.3-2.7-0.2c-2.4,0.4-4.4,1.6-6.3,3.1
		c-1.1,0.8-3.1,0.9-4.3,0.4c-1.7-0.7-3.5-0.8-5.3-0.6c0.4,0.3,0.9,0.5,1.4,0.9c-0.3,0.4-0.6,0.8-0.9,1.1c-0.3,0.3-0.6,0.4-0.9,0.6
		c-0.1-0.4-0.4-0.8-0.4-1.1c0.1-1.2-0.1-2.1-1.4-2.5c-0.3-0.1-0.6-0.3-0.8-0.5c-1.1-1-2-2.2-3.2-3.1c-1.4-1.1-2.7-2.3-4.8-2.2
		c-1,0.1-2-0.5-3.1-0.8c-0.6-0.2-1.2-0.4-1.8-0.5c-0.6-0.1-0.8-0.3-0.6-0.9c0.7-1.9,0.7-2-1.1-2.7c-0.7-0.3-1.3-0.5-0.7-1.5
		c0.1-0.1-0.1-0.4-0.2-0.6c-1.4-1.7-3.1-2.8-5.4-2.7c-1.5,0.1-2.8-0.3-3.8-1.3c-0.8-0.8-1.8-1.2-2.9-1.1c-1.4,0.1-2-0.7-2.7-1.8
		c-0.2-0.3-0.6-0.7-1-0.7c-0.8-0.1-0.8-0.5-0.5-1c0.5-0.7,0.2-1.3-0.2-1.8c-0.3-0.4-0.6-0.8-0.8-1.2c-0.3-0.7-0.7-1-1.5-0.5
		c-1.2,0.8-2,0.4-2.4-0.9c-0.2-0.5-0.4-1.1-0.7-1.3c-1.1-0.7-2.3-1.5-3.6-1.9c-1.2-0.4-2.5-0.3-3.4,0.9c-0.3,0.4-1,0.7-1.5,0.8
		c-1,0.3-2.7,1.8-2.7,2.8c-0.1,2.5-0.2,5.1,1.9,7.1c0.2,0.2,0.3,0.4,0.3,0.6c0.2,1,0.6,1.8,1.4,2.5c2.2,1.8,3.9,4.2,6.3,5.8
		c3.2,2.1,6.3,4.5,9.4,6.8c2.2,1.6,4.2,3.5,6.8,4.4c0.2,0.1,0.4,0.2,0.5,0.4c1.2,1.8,3.3,2.5,5,3.5c1,0.6,2.3,0.7,3.2,1.3
		c3.6,2.4,7.2,4.7,11.4,5.9c0.2,0,0.4,0.1,0.5,0.3c0.6,0.5,1.2,1,1.8,1.6c-0.1,0.2-0.2,0.6-0.3,0.8c0.6,0.4,1.2,0.7,1.6,1.2
		c0.6,0.6,1,1.5,1.7,2c1.8,1.3,2.6,0.9,3.3-1.2c0.4-1,0.4-1.7,0.1-2.6c-0.1-0.3,0.1-0.6,0.1-1c0.1-0.7,0.3-1.5,0.4-2.2
		c0.1-0.3,0.1-0.8,0.2-0.8c0.3-0.1,0.7,0,0.9,0.1c1,0.8,2,1.5,3,2.4c0.5,0.5,1,0.6,1.6,0.2c-0.1-0.2-0.1-0.3-0.1-0.4
		c-0.8-0.7-0.8-1.6-0.3-2.4c0.6-0.8,1.4-0.1,2,0.1c0.5,0.1,1.2,0.3,1.6,0.1c0.8-0.6,1.5-0.8,2.4-0.6c0.2,0,0.6,0,0.7-0.2
		c1-1.2,2.4-0.6,3.6-0.7c0.2,0,0.6,0.3,0.7,0.6c0,0.3-0.2,0.6-0.4,0.8c-0.2,0.2-0.6,0.3-1,0.4c-1,0.3-2.3,1.9-2.4,3
		c-0.1,0.9-1,2.1-1.6,2.2c-1.2,0.2-2.5,0.2-3.6,0.6c-1.2,0.4-2.3,1.2-3.5,1.7c-0.5,0.2-1.1,0.2-1.7,0.3c-0.4,0.1-0.8,0.3-1.2,0.5
		c-0.2,0.2-0.3,0.6-0.5,0.9c-0.6,0.8-0.5,1.5,0.1,2.2c0.6,0.7,1.4,1.3,2.1,1.9c1.4,1.4,3,2.4,4.9,2.7c1,0.2,1.2,0.8,1.4,1.7
		c0.2,1.1,0.4,2.3,1,3.3c1.4,2.1,2.3,4.8,5.3,5.3c0,0,0.1,0,0.1,0.1c1.9,1.5,3.7,3.1,5.7,4.4c1.8,1.2,3.6,2.4,5.5,3.4
		c2.2,1.1,4.2,2.6,6.8,3c0.8,0.1,1.6,0.2,2.3,0.4c1.9,0.5,3.8,1.4,5.8,1.5c1.6,0.1,2.9,0.6,3.9,1.5c1.4,1.3,2.9,1.1,4.3,0.7
		c1.2-0.4,2.1,0.1,3.1,0.5c1.6,0.6,3.3,1.2,4.7,2.4c0.3,0.2,0.9,0.1,1.3,0.1c0.9,0.1,1.8,0.1,2.9,0.2c-0.9,1.2-0.2,1.8,0.6,2.1
		c0.9,0.4,1.9,0.7,2.9,0.7c2.1-0.1,4.2-0.3,6.3-0.6c2.1-0.2,4.2-0.6,6.1,0.6c0.3,0.2,0.7,0.2,1,0.2c4.7,0.2,9.4,0.4,14.1,0.5
		c0.9,0,1.6-0.2,2-1.1c0.1-0.3,0.5-0.5,0.8-0.5c2.5-0.6,5-1.5,7.2-2.9c0.5-0.3,0.9-0.7,1.3-1.1c1.2-1.2,2.3-2.6,3.7-3.6
		c1.6-1.3,2.6-3,3.5-4.7c0.8-1.3,1.3-2.8,2-4.2c0.7-1.3,1.5-2.5,2.1-3.9c2-4.3,4.5-8.4,4.9-13.2c0.2-1.8,0.5-3.6,0.7-5.4
		c0.3-3.5,1-6.8,2-10.1c0.5-1.7,0.9-3.4,0.9-5.1c0-3.4-0.3-6.7-0.5-10.1c-0.1-1.6,0.3-3.3-0.5-4.8c-0.1-0.2,0-0.6,0.1-0.7
		c1-0.9,0.7-2,0.7-3.1c0-1.1-0.1-2.1-0.1-3.2c0-4,0.1-8,0.2-12c0-1.3-0.1-2.5-1-3.5c-0.6-0.6-1-1.4-1.5-2.1
		c-0.1-0.2-0.3-0.6-0.2-0.7c0.5-0.7,0.9-1.5,1.6-1.8c1.9-1,3.1-2.6,4.3-4.1c1.1-1.4,1.9-3.2,2.7-4.8c1-2,2-4.1,3-6.1
		c1-2.1,2.5-4,2.7-6.4c0-0.3,0.4-0.6,0.6-1c1-1.5,2.2-2.8,3-4.4c1.1-2.2,1.9-4.6,2.6-7c0.9-2.8,2.5-5.5,2.6-8.6
		c0-0.4,0.3-0.7,0.4-1.1c0.8-1.8,1.7-3.6,2.3-5.5c0.9-3.1,1.7-6.2,2.4-9.3c0.5-2.2,0.7-4.4,0.8-6.7C358.4,202,358.2,201,357.8,200.4
		z"/>
	<path class="st0" d="M269.4,240.6c-0.6,0-1.2-0.1-1.7-0.4c-1.4-0.7-3.5-1.7-4.4-4.2c0,0-0.1-0.1-0.1-0.1c-2.3-1-3.8-2.8-5.2-4.4
		l-0.3-0.4c-0.6-0.7-0.9-1.6-1.1-2.4c-0.1-0.4-0.2-0.8-0.4-1.1c0,0-0.2-0.2-0.3-0.3c-0.2-0.2-0.3-0.3-0.5-0.5
		c-0.1-0.1-0.1-0.1-0.2-0.2c-0.4-0.4-0.9-0.9-1.1-1.7c-0.1-0.5-0.2-1.1-0.3-1.6c-0.5-2.8-1.1-5.6-0.6-8.6c0.2-1.3,0.4-2.6,0.7-3.8
		l0.2-0.9c0.1-0.4,0.2-1,0.7-1.5c-0.5-0.6-0.7-1.6-0.5-2.3c-0.7-0.4-1-1-1.2-1.4c-0.2-0.7-0.1-1.5,0.4-2.4c0.1-0.1,0.1-0.2,0.2-0.3
		c-0.8-0.3-1.4-1-1.7-1.7c-0.2-0.8-0.3-1.5-0.3-2.2c0-0.3,0-0.6-0.1-0.8c-0.1-0.5-0.1-1-0.2-1.4c-0.1-0.9-0.2-1.7-0.3-2.6
		c-0.4-4.5-0.6-7.9-0.8-11c-0.1-2.3,0.3-4.5,1.2-6.4c0.1-0.2,0.2-0.4,0.4-0.6c-0.8-0.4-1.4-1.1-1.6-2.7c-0.2-1.4-0.2-2.7-0.2-4.1
		c0-0.5,0-1.1,0-1.6c0-0.1,0-0.3,0-0.4c-0.3-1.9,0.2-3.6,0.7-5.1c0.1-0.3,0.2-0.6,0.2-0.8c0.2-0.8,0.5-1.5,0.9-2c0,0,0,0,0,0
		c-1.9-3.3-1.5-8.6,0.9-11.3c1.1-1.2,3.1-2,5.2-2c1.7,0,3.2,0.5,4.2,1.4c0.7,0.7,1.1,1.5,1.4,2.3c0.4,1.1,0.7,1.1,1,1.1
		c0.9,0,2,0.7,2.3,1.7c0.4,1.5,0.7,3,1,4.5c0.2,1,0.3,2,0.4,3.2c0.1,0.9,0.1,1.8,0.2,2.8c0.2,2.5,0.4,5.1,0.3,7.6
		c-0.1,1.9,0,3.4,0.7,4.9c0.3,0.6,0.3,1.3,0.3,1.8c0,0.2,0,0.4,0,0.6c0.9,4.2,1,8.5,1,12.6c0,1.7,0.1,3.5,0.1,5.3
		c0,0.3,0.1,0.6,0.1,0.9c0.1,1.1,0.3,2.5-0.4,3.8c-0.5,0.9-0.3,1.5,0,2.9l0,0.1c0.3,1.3,0.2,2.4-0.3,3.2c2.3,0.8,2.7,3.1,2.9,4.2
		c0.5,2.7,0.9,5.5,1.3,8c0.1,0.6,0,1.1,0,1.6c0,0.2,0,0.5,0,0.7c0,1.6,0.1,3.1,0.1,4.7c0,2.6,0.1,5.2,0.1,7.7c0,1.7-0.1,3.7-1.4,5.6
		C272.8,239.7,271.1,240.6,269.4,240.6z"/>
	<linearGradient id="SVGID_3_" gradientUnits="userSpaceOnUse" x1="251.7392" y1="192.1844" x2="273.4405" y2="192.1844">
		<stop  offset="3.852100e-04" style="stop-color:#8E6C48"/>
		<stop  offset="0.9996" style="stop-color:#ECC383"/>
	</linearGradient>
	<path class="st3" d="M256.3,158.8c-0.2-0.1-0.5-0.2-0.7-0.3c-1.7-0.5-2.5,0-2.9,1.7c-0.5,1.8-1.1,3.6-0.8,5.5c0,0.1,0,0.2,0,0.3
		c0,1.8,0,3.7,0.2,5.5c0.2,1.4,0.6,1.6,2.1,1.6c0.3,0,0.6,0.1,1,0.2c-0.8,0.9-1.6,1.6-2,2.4c-0.9,1.7-1.2,3.7-1.1,5.6
		c0.2,3.7,0.5,7.3,0.8,11c0.1,1.3,0.3,2.7,0.5,4c0.1,0.9,0.1,1.9,0.3,2.8c0.1,0.4,0.8,0.9,1.2,0.8c0.9-0.1,1.8-0.6,2.7-0.8
		c0.3-0.1,1-0.2,1-0.1c0.2,0.5,0.4,1.1,0.4,1.7c0,0.3-0.4,0.7-0.6,1c0,0.1-0.4,0-0.5-0.1c-1.5-0.9-2-0.8-2.9,0.8
		c-0.4,0.7-0.5,1.4,0.5,1.7c0.7,0.3,0.8,0.7,0.5,1.5c-0.1,0.3-0.1,0.9,0.1,1.1c0.8,0.7,0.9,1.3,0,2c-0.2,0.2-0.3,0.5-0.4,0.8
		c-0.3,1.5-0.6,3.1-0.9,4.6c-0.5,3.3,0.4,6.5,0.9,9.7c0.1,0.4,0.6,0.8,0.9,1.1c0.3,0.4,0.8,0.7,1,1.1c0.5,1,0.7,2.3,1.3,3.1
		c1.4,1.7,2.7,3.5,4.9,4.3c0.4,0.2,0.9,0.5,1,0.9c0.6,1.8,2.1,2.6,3.6,3.4c1.2,0.6,3.1-0.1,3.9-1.2c1-1.4,1.1-3,1.1-4.7
		c0-4.1-0.1-8.3-0.2-12.4c0-0.7,0.1-1.4,0-2.1c-0.4-2.6-0.7-5.3-1.2-7.9c-0.3-1.4-0.7-2.9-2.5-3.2c-0.3,0-0.7-0.3-1-0.6
		c-0.1-0.2-0.2-0.7-0.1-0.7c1.3-0.6,1.2-2.1,1-2.9c-0.4-1.5-0.7-2.7,0.1-4.1c0.6-1.2,0.2-2.6,0.1-3.9c-0.3-5.9,0.1-11.8-1.1-17.6
		c-0.1-0.7,0-1.4-0.3-2c-0.8-1.8-0.9-3.6-0.8-5.6c0.1-3.4-0.3-6.8-0.5-10.2c-0.1-1-0.2-2-0.4-3c-0.3-1.5-0.6-2.9-1-4.4
		c-0.1-0.2-0.5-0.5-0.8-0.5c-1.4,0-2-0.9-2.4-2c-0.3-0.6-0.5-1.3-1-1.8c-1.7-1.5-5.6-1.2-7.1,0.5c-2,2.2-2.3,6.7-0.8,9.5
		c1-0.4,1.9-0.8,2.9-1.1c0.4-0.1,1,0.2,1.2,0.5c0.2,0.2-0.1,0.8-0.3,1.2C257,158,256.6,158.4,256.3,158.8z"/>
	<g>
		<path class="st0" d="M244.7,314.7c-1.2,0-2.1-1-2.1-2.1v-41.9c0-1.2,0.9-2.1,2.1-2.1h15.8c1.2,0,2.1,1,2.1,2.1v7.9
			c0,1.2-0.9,2.1-2.1,2.1h-8v5.4h6.6c1.2,0,2.1,1,2.1,2.1v7.9c0,1.2-0.9,2.1-2.1,2.1h-6.6v14.1c0,1.2-0.9,2.1-2.1,2.1H244.7z"/>
		<path class="st0" d="M264.9,314.7c-1.2,0-2.1-1-2.1-2.1v-41.9c0-1.2,0.9-2.1,2.1-2.1h5.7c1.2,0,2.1,1,2.1,2.1v41.9
			c0,1.2-0.9,2.1-2.1,2.1H264.9z"/>
		<path class="st0" d="M280.8,314.7c-1,0-1.9-0.7-2.1-1.8l-7.6-41.9c-0.1-0.6,0-1.2,0.4-1.7c0.4-0.5,1-0.8,1.6-0.8h6
			c1,0,1.9,0.8,2.1,1.8c0,0,3,19.5,3,19.5c0,0,3-19.5,3-19.5c0.2-1.1,1-1.8,2.1-1.8h5.8c0.6,0,1.2,0.3,1.6,0.8
			c0.4,0.5,0.5,1.1,0.4,1.7l-7.6,41.9c-0.2,1-1.1,1.8-2.1,1.8H280.8z"/>
		<path class="st0" d="M297.5,314.7c-1.2,0-2.1-1-2.1-2.1v-41.9c0-1.2,0.9-2.1,2.1-2.1h15.7c1.2,0,2.1,1,2.1,2.1v7.9
			c0,1.2-0.9,2.1-2.1,2.1h-7.9v4.1h6.4c1.2,0,2.1,1,2.1,2.1v7.9c0,1.2-0.9,2.1-2.1,2.1h-6.4v5.4h8.3c1.2,0,2.1,1,2.1,2.1v7.9
			c0,1.2-0.9,2.1-2.1,2.1H297.5z"/>
	</g>
	<g>
		<linearGradient id="SVGID_4_" gradientUnits="userSpaceOnUse" x1="243.3897" y1="290.8542" x2="260.2882" y2="290.8542">
			<stop  offset="3.851400e-04" style="stop-color:#000F20"/>
			<stop  offset="0.9996" style="stop-color:#003749"/>
		</linearGradient>
		<path class="st4" d="M243.9,312.3c-0.3,0-0.5-0.3-0.5-0.6v-41.9c0-0.3,0.2-0.6,0.5-0.6h15.8c0.3,0,0.5,0.3,0.5,0.6v7.9
			c0,0.3-0.2,0.6-0.5,0.6h-9.6v8.6h8.1c0.3,0,0.5,0.3,0.5,0.6v7.9c0,0.3-0.2,0.6-0.5,0.6h-8.1v15.7c0,0.3-0.2,0.6-0.5,0.6H243.9z"/>
		<linearGradient id="SVGID_5_" gradientUnits="userSpaceOnUse" x1="263.5428" y1="290.8542" x2="270.2883" y2="290.8542">
			<stop  offset="3.851400e-04" style="stop-color:#000F20"/>
			<stop  offset="0.9996" style="stop-color:#003749"/>
		</linearGradient>
		<path class="st5" d="M264.1,312.3c-0.3,0-0.5-0.3-0.5-0.6v-41.9c0-0.3,0.2-0.6,0.5-0.6h5.7c0.3,0,0.5,0.3,0.5,0.6v41.9
			c0,0.3-0.2,0.6-0.5,0.6H264.1z"/>
		<linearGradient id="SVGID_6_" gradientUnits="userSpaceOnUse" x1="271.884" y1="290.8542" x2="294.9051" y2="290.8542">
			<stop  offset="3.851400e-04" style="stop-color:#000F20"/>
			<stop  offset="0.9996" style="stop-color:#003749"/>
		</linearGradient>
		<path class="st6" d="M280,312.3c-0.3,0-0.5-0.2-0.5-0.5l-7.6-41.9c0-0.2,0-0.3,0.1-0.5c0.1-0.1,0.3-0.2,0.4-0.2h6
			c0.3,0,0.5,0.2,0.5,0.5l3,19.5c0.4,2.2,0.7,4.5,1,6.6c0.2,1.3,0.4,2.6,0.6,3.9c0.2-1.6,0.5-3.2,0.7-4.7c0.3-1.9,0.6-3.8,0.9-5.8
			l3-19.5c0-0.3,0.3-0.5,0.5-0.5h5.8c0.2,0,0.3,0.1,0.4,0.2c0.1,0.1,0.1,0.3,0.1,0.5l-7.6,41.9c0,0.3-0.3,0.5-0.5,0.5H280z"/>
		<linearGradient id="SVGID_7_" gradientUnits="userSpaceOnUse" x1="296.1953" y1="290.8542" x2="313.365" y2="290.8542">
			<stop  offset="3.851400e-04" style="stop-color:#000F20"/>
			<stop  offset="0.9996" style="stop-color:#003749"/>
		</linearGradient>
		<path class="st7" d="M296.7,312.3c-0.3,0-0.5-0.3-0.5-0.6v-41.9c0-0.3,0.2-0.6,0.5-0.6h15.7c0.3,0,0.5,0.3,0.5,0.6v7.9
			c0,0.3-0.2,0.6-0.5,0.6h-9.5v7.3h8c0.3,0,0.5,0.3,0.5,0.6v7.9c0,0.3-0.2,0.6-0.5,0.6h-8v8.5h9.9c0.3,0,0.5,0.3,0.5,0.6v7.9
			c0,0.3-0.2,0.6-0.5,0.6H296.7z"/>
	</g>
	<path class="st0" d="M245,339.1c-0.4,0-0.8-0.4-0.8-0.8v-17.7c0-0.4,0.4-0.8,0.8-0.8h7.8c0.4,0,0.8,0.4,0.8,0.8v3.3
		c0,0.4-0.4,0.8-0.8,0.8h-4.2v2.5h3.5c0.4,0,0.8,0.4,0.8,0.8v3.3c0,0.4-0.4,0.8-0.8,0.8h-3.5v6.1c0,0.4-0.4,0.8-0.8,0.8H245z"/>
	<path class="st0" d="M254.9,339.1c-0.4,0-0.8-0.4-0.8-0.8v-17.7c0-0.4,0.4-0.8,0.8-0.8h2.8c0.4,0,0.8,0.4,0.8,0.8v17.7
		c0,0.4-0.4,0.8-0.8,0.8H254.9z"/>
	<path class="st0" d="M267.4,339.1c-0.3,0-0.6-0.2-0.7-0.5l-2.6-7.2c0,0.2,0,0.5,0,0.7v6.3c0,0.4-0.4,0.8-0.8,0.8h-2.7
		c-0.4,0-0.8-0.4-0.8-0.8v-17.7c0-0.4,0.4-0.8,0.8-0.8h2.9c0.3,0,0.6,0.2,0.7,0.5l2.6,7.2c0-0.2,0-0.5,0-0.7v-6.2
		c0-0.4,0.4-0.8,0.8-0.8h2.7c0.4,0,0.8,0.4,0.8,0.8v17.7c0,0.4-0.4,0.8-0.8,0.8H267.4z"/>
	<path class="st0" d="M278.6,339.4c-4.1,0-6.8-3.9-6.8-9.8c0-5.9,2.8-10,6.8-10c1.8,0,3.3,0.9,4.5,2.6c0.2,0.2,0.2,0.6,0,0.8
		l-1.5,2.6c-0.1,0.2-0.4,0.4-0.6,0.4c0,0,0,0-0.1,0c-0.2,0-0.5-0.1-0.6-0.3c-0.6-0.8-1.1-1.1-1.7-1.1c-1.5,0-2.5,2-2.5,4.9
		c0,2.3,0.5,5,2.7,5c0.2,0,0.4,0,0.5-0.1v-1.9h-1.3c-0.4,0-0.8-0.4-0.8-0.8v-3.3c0-0.4,0.4-0.8,0.8-0.8h4.5c0.4,0,0.8,0.4,0.8,0.8
		v8.1c0,0.2-0.1,0.3-0.1,0.5C282.2,338.5,280.4,339.4,278.6,339.4z"/>
	<path class="st0" d="M285.2,339.1c-0.4,0-0.8-0.4-0.8-0.8v-17.7c0-0.4,0.4-0.8,0.8-0.8h7.7c0.4,0,0.8,0.4,0.8,0.8v3.3
		c0,0.4-0.4,0.8-0.8,0.8h-4.2v2h3.4c0.4,0,0.8,0.4,0.8,0.8v3.3c0,0.4-0.4,0.8-0.8,0.8h-3.4v2.5h4.3c0.4,0,0.8,0.4,0.8,0.8v3.3
		c0,0.4-0.4,0.8-0.8,0.8H285.2z"/>
	<path class="st0" d="M295.6,339.1c-0.4,0-0.8-0.4-0.8-0.8v-17.7c0-0.4,0.4-0.8,0.8-0.8h4.4c2.1,0,5.5,0.8,5.5,6.3
		c0,4.9-2.9,6.6-5.5,6.6h-0.9v5.6c0,0.4-0.4,0.8-0.8,0.8H295.6z"/>
	<path class="st0" d="M302.3,339.1c-0.3,0-0.6-0.2-0.7-0.5l-2.7-7.4c-0.1-0.3-0.1-0.5,0.1-0.7l1.9-2.6c0.1-0.2,0.4-0.3,0.6-0.3
		c0,0,0.1,0,0.1,0c0.3,0,0.5,0.2,0.6,0.5l3.9,10c0.1,0.2,0.1,0.5-0.1,0.7c-0.1,0.2-0.4,0.3-0.6,0.3H302.3z"/>
	<path class="st0" d="M310.7,339.4c-1.9,0-3.8-1-5.2-2.9c-0.2-0.3-0.2-0.6,0-0.9l1.6-2.7c0.1-0.2,0.4-0.4,0.6-0.4c0,0,0,0,0.1,0
		c0.2,0,0.5,0.1,0.6,0.3c0.8,0.9,1.7,1.6,2.4,1.6c0.7,0,1-0.3,1-0.9c0-0.6-0.2-0.7-1.2-1.3l-0.2-0.1l-1.6-1
		c-1.1-0.6-2.9-2.2-2.9-5.5c0-3.4,2.2-6,5.2-6c1.7,0,3.4,1,4.6,2.6c0.2,0.2,0.2,0.6,0,0.8l-1.4,2.5c-0.1,0.2-0.3,0.4-0.6,0.4
		c0,0-0.1,0-0.1,0c-0.2,0-0.4-0.1-0.6-0.3c-0.7-0.8-1.3-1.1-2-1.1c-0.5,0-0.8,0.2-0.8,0.8c0,0.5,0.3,0.7,1.3,1.3l1.8,1
		c1.9,1.1,2.8,2.9,2.8,5.5C316.2,336.8,313.9,339.4,310.7,339.4z"/>
	<g>
		<polygon points="245,320.7 252.7,320.7 252.7,324 247.7,324 247.7,328.1 252,328.1 252,331.5 247.7,331.5 247.7,338.3 245,338.3 
					"/>
		<rect x="254.9" y="320.7" width="2.8" height="17.7"/>
		<path d="M260.6,320.7h2.9l3.2,8.8l1.2,3.9h0.1c-0.1-1.9-0.4-4.3-0.4-6.4v-6.2h2.7v17.7h-2.9l-3.2-8.8l-1.2-3.9h-0.1
			c0.1,1.9,0.4,4.3,0.4,6.4v6.3h-2.7V320.7z"/>
		<path d="M272.6,329.6c0-5.9,2.7-9.3,6-9.3c1.8,0,3.1,1.1,3.9,2.3l-1.5,2.6c-0.6-0.8-1.3-1.4-2.3-1.4c-1.9,0-3.2,2.1-3.2,5.7
			c0,3.6,1.1,5.7,3.5,5.7c0.5,0,1-0.2,1.3-0.5v-3h-2v-3.3h4.5v8.1c-0.9,1.2-2.3,2.1-4.1,2.1C275.2,338.7,272.6,335.5,272.6,329.6z"
			/>
		<polygon points="285.2,320.7 293,320.7 293,324 288,324 288,327.6 292.2,327.6 292.2,330.9 288,330.9 288,335 293.2,335 
			293.2,338.3 285.2,338.3 		"/>
		<path d="M295.6,320.7h4.4c2.6,0,4.8,1.3,4.8,5.5c0,4.1-2.1,5.8-4.8,5.8h-1.7v6.4h-2.8V320.7z"/>
		<path d="M298.4,329.6c-0.4,0-0.8-0.4-0.8-0.8v-5c0-0.4,0.4-0.8,0.8-0.8h1.4c2,0,3,1,3,3.1c0,2.1-1.1,3.4-3,3.4H298.4z"/>
		<path d="M299.8,328.8c1.5,0,2.3-0.9,2.3-2.6c0-1.7-0.8-2.3-2.3-2.3h-1.4v5H299.8z"/>
		<polygon points="299.5,330.9 301.5,328.4 305.4,338.3 302.3,338.3 		"/>
		<path d="M306.2,336.1l1.6-2.7c0.9,1.1,2,1.8,3,1.8c1.2,0,1.7-0.7,1.7-1.7c0-1.1-0.7-1.5-1.8-2.1l-1.6-1c-1.3-0.7-2.5-2.2-2.5-4.8
			c0-2.9,1.8-5.3,4.4-5.3c1.4,0,2.9,0.8,4,2.3l-1.4,2.5c-0.8-0.9-1.6-1.4-2.6-1.4c-1,0-1.6,0.6-1.6,1.6c0,1.1,0.8,1.5,1.9,2.1
			l1.6,0.9c1.5,0.9,2.4,2.3,2.4,4.8c0,2.9-1.7,5.5-4.6,5.5C309.1,338.7,307.4,337.8,306.2,336.1z"/>
	</g>
</g>
</svg>
