<?xml version="1.0" encoding="utf-8"?>
<!-- Generator: Adobe Illustrator 23.0.5, SVG Export Plug-In . SVG Version: 6.00 Build 0)  -->
<svg version="1.1" id="Layer_1" xmlns="http://www.w3.org/2000/svg" xmlns:xlink="http://www.w3.org/1999/xlink" x="0px" y="0px"
	 viewBox="0 0 512 512" style="enable-background:new 0 0 512 512;" xml:space="preserve">
<style type="text/css">
	.st0{fill:#FF0000;}
	.st1{font-family:'Constantia-Bold';}
	.st2{font-size:41.4237px;}
	.st3{font-family:'TimesNewRomanPS-ItalicMT';}
	.st4{font-size:16.8966px;}
	.st5{fill:url(#SVGID_1_);}
	.st6{fill:url(#SVGID_2_);}
	.st7{fill:url(#SVGID_3_);}
	.st8{fill:url(#SVGID_4_);}
	.st9{fill:url(#SVGID_5_);}
	.st10{fill:url(#SVGID_6_);}
</style>
<text transform="matrix(1 0 0 1 119.6436 340.3623)" class="st0 st1 st2">DALIAN TECHS</text>
<text transform="matrix(1 0 0 1 178.4697 363.7852)" class="st3 st4">Serving Technology Better </text>
<g>
	<linearGradient id="SVGID_1_" gradientUnits="userSpaceOnUse" x1="154.6131" y1="224.5079" x2="329.3083" y2="224.5079">
		<stop  offset="0" style="stop-color:#FF0000"/>
		<stop  offset="0.1382" style="stop-color:#FE0D03"/>
		<stop  offset="0.3915" style="stop-color:#FD2E09"/>
		<stop  offset="0.7289" style="stop-color:#FA6314"/>
		<stop  offset="1" style="stop-color:#F7931E"/>
	</linearGradient>
	<path class="st5" d="M186,156.8c-2-6.5-8.1-11.2-15.3-11.2c-8.9,0-16.1,7.2-16.1,16.1c0,8.9,7.2,16.1,16.1,16.1
		c3.4,0,6.6-1.1,9.3-2.9c87.2,16.5,142.6,50.2,140.8,77.7c-1.7,26.1-55.3,44-80.8,51c58.5-15.5,88.3-33.5,89.4-53.9
		C330.7,222.8,283,191.9,186,156.8z M169.8,167.7c-3.5,0-6.4-2.9-6.4-6.4c0-3.5,2.9-6.4,6.4-6.4c3.5,0,6.4,2.9,6.4,6.4
		C176.2,164.9,173.4,167.7,169.8,167.7z"/>
	<linearGradient id="SVGID_2_" gradientUnits="userSpaceOnUse" x1="227.3659" y1="305.1356" x2="239.1685" y2="305.1356">
		<stop  offset="0" style="stop-color:#FF0000"/>
		<stop  offset="0.1382" style="stop-color:#FE0D03"/>
		<stop  offset="0.3915" style="stop-color:#FD2E09"/>
		<stop  offset="0.7289" style="stop-color:#FA6314"/>
		<stop  offset="1" style="stop-color:#F7931E"/>
	</linearGradient>
	<path class="st6" d="M239.2,303.6c-5.9,1.6-10.2,2.6-11.8,3C231.4,305.6,235.4,304.6,239.2,303.6z"/>
	<linearGradient id="SVGID_3_" gradientUnits="userSpaceOnUse" x1="168.4528" y1="235.5023" x2="310.7242" y2="235.5023">
		<stop  offset="0" style="stop-color:#7F47DD"/>
		<stop  offset="1" style="stop-color:#29ABE2"/>
	</linearGradient>
	<path class="st7" d="M191.8,187.3c-1.9-4.3-6.2-7.4-11.2-7.4c-6.7,0-12.2,5.5-12.2,12.2c0,6.7,5.5,12.2,12.2,12.2
		c3.5,0,6.6-1.4,8.8-3.8c70.8,11.7,115.7,35.4,114.2,54.6c-1.4,18.5-45.4,31-66.4,36c48-11,72.5-23.6,73.4-38
		C311.9,234.1,272.3,212.2,191.8,187.3z M180.4,197.1c-2.6,0-4.7-2.1-4.7-4.7c0-2.6,2.1-4.7,4.7-4.7c2.6,0,4.7,2.1,4.7,4.7
		C185.1,195,183,197.1,180.4,197.1z"/>
	<linearGradient id="SVGID_4_" gradientUnits="userSpaceOnUse" x1="226.9729" y1="292.2841" x2="236.7991" y2="292.2841">
		<stop  offset="0" style="stop-color:#FF0000"/>
		<stop  offset="0.1382" style="stop-color:#FE0D03"/>
		<stop  offset="0.3915" style="stop-color:#FD2E09"/>
		<stop  offset="0.7289" style="stop-color:#FA6314"/>
		<stop  offset="1" style="stop-color:#F7931E"/>
	</linearGradient>
	<path class="st8" d="M236.8,291.2c-4.9,1.2-8.5,1.9-9.8,2.1C230.3,292.6,233.6,291.9,236.8,291.2z"/>
	<linearGradient id="SVGID_5_" gradientUnits="userSpaceOnUse" x1="185.0605" y1="246.1007" x2="286.9237" y2="246.1007">
		<stop  offset="0" style="stop-color:#FF0000"/>
		<stop  offset="0.1382" style="stop-color:#FE0D03"/>
		<stop  offset="0.3915" style="stop-color:#FD2E09"/>
		<stop  offset="0.7289" style="stop-color:#FA6314"/>
		<stop  offset="1" style="stop-color:#F7931E"/>
	</linearGradient>
	<path class="st9" d="M204,212.2c-1.6-3.4-5-5.7-9-5.7c-5.5,0-10,4.5-10,10c0,5.5,4.5,10,10,10c3.7,0,7-2,8.7-5.1
		c48.6,8.8,79,25,78,38.3c-1.1,13.4-34,22.6-49.4,26.1c35.7-7.9,53.9-17.1,54.6-27.6C287.8,244.9,260.1,229.5,204,212.2z
		 M194.7,219.8c-2,0-3.6-1.6-3.6-3.6c0-2,1.6-3.6,3.6-3.6c2,0,3.6,1.6,3.6,3.6C198.3,218.1,196.7,219.8,194.7,219.8z"/>
	<linearGradient id="SVGID_6_" gradientUnits="userSpaceOnUse" x1="225.1571" y1="286.5488" x2="231.7504" y2="286.5488">
		<stop  offset="0" style="stop-color:#FF0000"/>
		<stop  offset="0.1382" style="stop-color:#FE0D03"/>
		<stop  offset="0.3915" style="stop-color:#FD2E09"/>
		<stop  offset="0.7289" style="stop-color:#FA6314"/>
		<stop  offset="1" style="stop-color:#F7931E"/>
	</linearGradient>
	<path class="st10" d="M231.8,285.8c-3.2,0.7-5.6,1.2-6.6,1.4C227.4,286.8,229.6,286.3,231.8,285.8z"/>
</g>
</svg>
