<?xml version="1.0" encoding="utf-8"?>
<!-- Generator: Adobe Illustrator 23.0.5, SVG Export Plug-In . SVG Version: 6.00 Build 0)  -->
<svg version="1.1" id="Layer_1" xmlns="http://www.w3.org/2000/svg" xmlns:xlink="http://www.w3.org/1999/xlink" x="0px" y="0px"
	 viewBox="0 0 512 512" style="enable-background:new 0 0 512 512;" xml:space="preserve">
<style type="text/css">
	.st0{fill:#F68F32;}
	.st1{fill:#FFD79A;}
	.st2{fill:#F37A38;}
</style>
<g>
	<g>
		<path class="st0" d="M285.8,191v63.2c0,8.9-1.5,17.4-4.1,25c-1.7-1.1-3.6-2-5.6-2.4v-22.4c0-1.9-1.6-3.5-3.5-3.5
			c-1,0-1.9,0.4-2.5,1c-0.6,0.6-1,1.5-1,2.5v22.4c-7.3,1.6-12.8,8.1-12.8,16c0,4.9,2.2,9.3,5.6,12.3c-0.3-0.2-0.7-0.3-1-0.6
			l-42.5-27.3c-11.8-8.4-18.8-22.3-18.8-37.1v-58.5c3.3,4.7,8,7.6,13.3,7.6h18.6c8.2,0,15.1-7.1,17.3-16.8c0.5-2.2,0.8-4.5,0.8-6.9
			v-4.7c0-4.6-1-8.9-2.8-12.6c4.4-0.7,8.7-1.1,12.9-1.3c1.2,4.3,1.9,9,1.9,13.9v4.7c0,2.4-0.2,4.7-0.5,6.9h10.6
			C279.5,172.4,285.8,180.7,285.8,191z"/>
		<g>
			<path class="st1" d="M271.6,172.4H261c0.3-2.2,0.5-4.6,0.5-6.9v-4.7c0-4.9-0.7-9.6-1.9-13.9c-4.3,0.2-8.5,0.6-12.9,1.3
				c1.8,3.6,2.8,8,2.8,12.6v4.7c0,2.4-0.3,4.7-0.8,6.9c-2.3,9.7-9.2,16.8-17.3,16.8h-18.6c-5.2,0-10-2.9-13.3-7.6v58.5
				c0,14.8,7,28.7,18.8,37.1l42.5,27.3c0.3,0.2,0.7,0.4,1,0.6c-3.4-3-5.6-7.4-5.6-12.3c0-7.8,5.5-14.3,12.8-16v-22.4
				c0-1,0.4-1.9,1-2.5c0.6-0.6,1.5-1,2.5-1c1.9,0,3.5,1.6,3.5,3.5v22.4c2,0.4,3.9,1.3,5.6,2.4c2.6-7.6,4.1-16.1,4.1-25V191
				C285.8,180.7,279.5,172.4,271.6,172.4z"/>
		</g>
		<g>
			<path class="st2" d="M325.8,160.3c-28.1-9.6-47-14.1-66.2-13.4c1.2,4.3,1.9,9,1.9,13.9v4.7c0,2.4-0.2,4.7-0.5,6.9h10.6
				c7.9,0,14.2,8.3,14.2,18.6v63.2c0,8.9-1.5,17.4-4.1,25c-1.7-1.2-3.6-2-5.7-2.5v-22.3c0-1.9-1.6-3.5-3.5-3.5
				c-1.9,0-3.5,1.6-3.5,3.5v22.3c-7.3,1.6-12.7,8.1-12.7,15.9c0,9,7.3,16.3,16.3,16.3c9,0,16.2-7.2,16.3-16.2l0.1-0.1l24-15.4
				c11.8-8.4,18.8-22.3,18.8-37.1v-72.2C331.7,164.5,329.4,161.5,325.8,160.3z"/>
			<circle class="st1" cx="272.5" cy="292.7" r="6.1"/>
		</g>
	</g>
	<g>
		<path class="st1" d="M311.7,196.7h-8.6v3.5h9.6l-0.6,4.1h-14.3v-18.9H312v4.1h-9v3h8.6V196.7z"/>
		<path class="st1" d="M309.8,225.6c0-2.9,0.1-6.8,0.1-9h-0.1c-0.8,4-2.1,9.7-3.4,15.2h-4.4c-1.1-5.3-2.3-10.9-3.1-15.1h-0.2
			c0.2,2.2,0.3,5.9,0.3,9.1v6H294v-18.9h8c0.9,3.8,2,9.4,2.4,12.1h0.1c0.5-3,1.7-8,2.8-12.1h7.7v18.9h-5.3V225.6z"/>
		<path class="st1" d="M313.4,259.2h-3.7c-0.1-0.5-0.3-1.3-0.3-1.7c-1.1,1.4-2.9,2.1-5.5,2.1c-5.8,0-8.7-4.4-8.7-9.6
			c0-5.8,3.4-10,9.7-10c5.7,0,8.3,3.3,8.7,6.2H308c-0.3-1-1-2.3-3.2-2.3c-3.2,0-3.9,2.9-3.9,5.9c0,3,0.9,5.9,4,5.9
			c2.8,0,3.3-2,3.3-3.3v-0.1h-3.5v-3.9h8.8V259.2z"/>
	</g>
	<path class="st1" d="M338,253.5v110.9H193.2V253.7c3.4,10.2,9.9,19.1,18.6,25.4l48.3,31c0.4,0.2,3.1,5,13.3,5
		c10.2,0,18.4-8.2,18.5-18.4l0.2-0.1l27.2-17.4C328.1,272.8,334.6,263.7,338,253.5z"/>
	<g>
		<path class="st0" d="M208.5,333.8c0.4,1.8,1.7,2.7,3.9,2.7c2.2,0,3.2-0.9,3.2-2.3c0-1.5-0.8-2.2-4-3c-4.5-1.1-5.7-2.7-5.7-5
			c0-2.9,2.1-4.9,6.1-4.9c4.4,0,6.2,2.4,6.4,4.9h-3.3c-0.2-1.2-0.9-2.4-3.3-2.4c-1.7,0-2.7,0.7-2.7,2.1c0,1.3,0.8,1.9,3.7,2.6
			c5,1.2,6,3.1,6,5.4c0,3-2.3,5.2-6.7,5.2c-4.4,0-6.5-2.2-6.9-5.2H208.5z"/>
		<path class="st0" d="M233.4,331.2H225v5h9.2l-0.4,2.7h-12v-17.2h11.9v2.7H225v4.2h8.4V331.2z"/>
		<path class="st0" d="M251.5,333.6c-0.7,3.1-3.1,5.4-7.2,5.4c-5.4,0-7.9-3.9-7.9-8.8c0-4.7,2.6-8.9,8.1-8.9c4.4,0,6.6,2.6,7.1,5.4
			h-3.2c-0.4-1.5-1.5-2.9-4-2.9c-3.3,0-4.6,3-4.6,6.3c0,3.1,1.2,6.3,4.7,6.3c2.5,0,3.4-1.6,3.8-2.8H251.5z"/>
		<path class="st0" d="M257.7,321.6v10.3c0,3.6,1.9,4.6,3.9,4.6c2.3,0,3.8-1.2,3.8-4.6v-10.3h3.2v10.1c0,5.8-3.3,7.3-7.1,7.3
			c-3.8,0-7.1-1.6-7.1-7.2v-10.2H257.7z"/>
		<path class="st0" d="M275.9,331.7v7.1h-3.2v-17.2h7.3c3.7,0,5.7,2,5.7,4.7c0,2.3-1.3,3.6-2.7,4.1c1,0.3,2.3,1.3,2.3,4.3v0.8
			c0,1.2,0,2.6,0.2,3.3h-3.1c-0.3-0.7-0.3-2.1-0.3-3.8v-0.3c0-2.1-0.6-3-3.4-3H275.9z M275.9,329.1h3.3c2.2,0,3.2-0.8,3.2-2.5
			c0-1.5-1-2.4-3-2.4h-3.5V329.1z"/>
		<path class="st0" d="M292.4,321.6v17.2h-3.2v-17.2H292.4z"/>
		<path class="st0" d="M300.3,324.3h-5.3v-2.7h13.9v2.7h-5.3v14.6h-3.2V324.3z"/>
		<path class="st0" d="M316.4,338.8v-6.2c0-0.2,0-0.4-0.1-0.5l-6-10.5h3.7c1.4,2.7,3.4,6.5,4.2,8.2c0.7-1.7,2.9-5.6,4.3-8.2h3.4
			l-6.1,10.5c-0.1,0.1-0.1,0.2-0.1,0.5v6.2H316.4z"/>
	</g>
	<g>
		<g>
			<path class="st0" d="M227.6,347.9c-0.2,1-1,1.7-2.3,1.7c-1.7,0-2.6-1.3-2.6-2.9c0-1.6,0.9-3,2.6-3c1.4,0,2.1,0.8,2.3,1.8h-0.8
				c-0.2-0.6-0.6-1.1-1.5-1.1c-1.2,0-1.7,1.1-1.7,2.2c0,1.1,0.5,2.2,1.7,2.2c0.9,0,1.2-0.5,1.4-1H227.6z"/>
			<path class="st0" d="M236.5,346.6c0,1.6-0.9,3-2.7,3c-1.7,0-2.6-1.3-2.6-2.9c0-1.6,1-2.9,2.7-2.9
				C235.5,343.7,236.5,344.9,236.5,346.6z M232,346.6c0,1.2,0.6,2.3,1.8,2.3c1.3,0,1.8-1.1,1.8-2.2c0-1.2-0.6-2.2-1.8-2.2
				C232.6,344.4,232,345.4,232,346.6z"/>
			<path class="st0" d="M245.2,347.1c0-1,0-2.1,0-2.7h0c-0.2,1-1.1,3.3-1.7,5.1h-0.8c-0.5-1.5-1.4-4.1-1.6-5.1h0
				c0,0.7,0.1,1.9,0.1,2.9v2.2h-0.8v-5.7h1.3c0.6,1.7,1.3,3.9,1.5,4.7h0c0.1-0.6,1-3,1.7-4.7h1.2v5.7h-0.8V347.1z"/>
			<path class="st0" d="M250.2,343.8h2.2c1.1,0,1.9,0.6,1.9,1.7c0,1.1-0.8,1.7-1.9,1.7h-1.3v2.3h-0.9V343.8z M251.1,346.5h1.3
				c0.7,0,1.1-0.4,1.1-1c0-0.7-0.5-1-1.1-1h-1.3V346.5z"/>
			<path class="st0" d="M259,347.9l-0.6,1.6h-0.8l2-5.7h1.1l2.1,5.7h-0.9l-0.6-1.6H259z M261,347.1c-0.5-1.4-0.8-2.2-0.9-2.7h0
				c-0.1,0.5-0.5,1.5-0.9,2.7H261z"/>
			<path class="st0" d="M266.3,349.5v-5.7h1.1c0.8,1.3,2.5,4.1,2.8,4.7h0c-0.1-0.7-0.1-1.6-0.1-2.6v-2.1h0.8v5.7h-1
				c-0.7-1.2-2.5-4.2-2.9-4.9h0c0,0.6,0,1.6,0,2.7v2.2H266.3z"/>
			<path class="st0" d="M276.4,349.5v-2.1c0-0.1,0-0.1,0-0.2l-2-3.5h1c0.5,0.9,1.3,2.3,1.6,2.9c0.2-0.5,1.1-1.9,1.6-2.9h0.9
				l-2.1,3.5c0,0,0,0.1,0,0.2v2.1H276.4z"/>
			<path class="st0" d="M287.6,343.8h0.8v5h3l-0.1,0.7h-3.7V343.8z"/>
			<path class="st0" d="M296.1,344.5h-1.8v-0.7h4.5v0.7H297v5h-0.9V344.5z"/>
			<path class="st0" d="M302.3,343.8h2.1c1.6,0,2.7,1.1,2.7,2.8c0,1.7-1.1,2.9-2.7,2.9h-2.1V343.8z M303.1,348.8h1.1
				c1.3,0,1.9-0.9,1.9-2.2c0-1.1-0.6-2.1-1.9-2.1h-1.2V348.8z"/>
		</g>
	</g>
</g>
</svg>
