<?xml version="1.0" encoding="utf-8"?>
<!-- Generator: Adobe Illustrator 23.0.5, SVG Export Plug-In . SVG Version: 6.00 Build 0)  -->
<svg version="1.1" id="Layer_1" xmlns="http://www.w3.org/2000/svg" xmlns:xlink="http://www.w3.org/1999/xlink" x="0px" y="0px"
	 viewBox="0 0 512 512" style="enable-background:new 0 0 512 512;" xml:space="preserve">
<style type="text/css">
	.st0{fill:#051730;}
	.st1{fill:#B72025;}
	.st2{fill:#FFFFFF;}
</style>
<g>
	<path class="st0" d="M379.1,294.1v-14.8h-58.7v15.8c-2.5-0.7-5.2-1-8-1c-7.3,0-14.1,2.4-19.6,6.9c-5.6-4.5-12.3-6.9-19.6-6.9
		c-7.3,0-14.1,2.4-19.6,6.9c-5.6-4.5-12.3-6.9-19.6-6.9c-7.3,0-14,2.4-19.6,6.9c-5.6-4.5-12.3-6.9-19.6-6.9c-4.6,0-8.9,0.9-12.9,2.7
		c-3.6-6.4-8.3-11.5-14.3-15c-6.2-3.7-13.1-5.6-20.7-5.6c-5.5,0-10.7,0.9-15.4,2.8c-4.8,1.9-9.2,4.8-13.1,8.6
		c-3.9,3.9-7,8.3-9.1,13.2c-2.1,4.9-3.1,10.2-3.1,15.7c0,11.4,3.8,21.2,11.4,29c7.7,8,17.3,12,28.6,12c10.3,0,19.3-3.3,26.7-9.9
		c5.9,5.8,13.5,8.9,21.8,8.9c2.7,0,5.4-0.3,8-1v19l29.1-29.1v-20.1c0-0.8,0.1-1,0.6-1.5c0.5-0.5,0.7-0.6,1.5-0.6
		c0.8,0,1,0.1,1.5,0.6c0.5,0.5,0.6,0.7,0.6,1.5v31.2h9.5l5.6,5.6c6,6,13.6,9.2,22.1,9.2c8.4,0,16.1-3.2,22.1-9.1
		c2.4-2.4,4.3-5,5.7-7.8c3.6,1.4,7.5,2.1,11.4,2.1c3.9,0,7.7-0.7,11.2-2l20,20v-20.7l20.7,20.7V359l9.8,26.8l33.4-91.8H379.1z"/>
	<path class="st0" d="M312.2,214c0,33.8-27.4,61.1-61.1,61.1c-33.8,0-61.1-27.4-61.1-61.1s27.4-61.1,61.1-61.1
		C284.9,152.9,312.2,180.3,312.2,214"/>
	<path class="st0" d="M251.1,301.8c-23.3,0-45.3-9.1-61.7-25.6c-16.5-16.5-25.6-38.4-25.6-61.7c0-23.3,9.1-45.3,25.6-61.7
		c16.5-16.5,38.4-25.6,61.7-25.6c17.8,0,35,5.3,49.6,15.5c14.3,9.9,25.2,23.6,31.6,39.6c2.6,6.6,1.6,13.8-2.1,19.3
		c0.9,0.7,1.7,1.4,2.5,2.2c3.9,4.1,6,9.7,5.7,15.4C335.8,265.5,297.5,301.8,251.1,301.8 M230.8,255.7c2.9,1.4,6,2.6,9.2,3.4
		c-0.7-0.8-1.3-1.7-1.8-2.7c-0.2,0-0.4,0-0.6,0c-0.4,0-0.8,0-1.2,0C234.5,256.4,232.6,256.2,230.8,255.7 M275.7,253.2
		c5.8-3.7,10.7-8.6,14.3-14.4h-8L275.7,253.2z M245.7,176.1c9.8,0.1,18,6.8,20.1,16.3l1.1,4.9c0.5,0,1-0.1,1.6-0.1h25.2
		c-7-17.4-23.7-28.7-42.5-28.7c-17.7,0-33.2,10.1-40.8,24.9c3.5-4.1,8.5-6.8,14.1-7.2c0.5,0,1.1-0.1,1.7-0.1c0.5,0,1.1,0,1.6,0.1
		c3.6-6.2,10.3-10.2,17.9-10.2L245.7,176.1z"/>
	<path class="st0" d="M251.1,291.6c41,0,74.8-32,77-73c0.1-2.9-0.9-5.7-2.9-7.8c-2-2.1-4.7-3.3-7.6-3.3h-49.2
		c-3.6,0-6.9,1.8-8.8,4.8l-3.9-17.7c-1.1-4.8-5.2-8.2-10.1-8.3l-0.1,0c-4.9,0-9.1,3.3-10.2,8.1l-1.3,5.6c-2-2.3-4.8-3.6-7.9-3.6
		c-0.3,0-0.6,0-0.8,0c-4.7,0.4-8.6,3.9-9.5,8.5l-4,21.2c-1.1,5.7,2.7,11.2,8.4,12.2c0.6,0.1,1.3,0.2,1.9,0.2c1.4,0,2.8-0.3,4-0.8
		l0.5,1.4c1.5,4.1,5.5,6.9,9.9,6.9c0.2,0,0.4,0,0.6,0c3-0.2,5.8-1.7,7.6-3.9l1.3,6c1,4.5,4.7,7.8,9.2,8.2c0.3,0,0.7,0.1,1,0.1
		c4.2,0,7.9-2.5,9.6-6.3l9.4-21.6h30.1c-6.3,24.6-28.6,42-54.3,42c-30.9,0-56.1-25.2-56.1-56.1c0-30.9,25.2-56.1,56.1-56.1
		c23.1,0,43.6,13.9,52.2,35.4c1.6,4,5.4,6.6,9.7,6.6c1.3,0,2.6-0.2,3.9-0.7c5.4-2.1,8-8.2,5.9-13.6c-5.6-14.2-15.3-26.3-27.9-35
		c-12.9-8.9-28-13.6-43.8-13.6c-20.6,0-39.9,8-54.5,22.6C182,174.6,174,193.9,174,214.5c0,20.6,8,39.9,22.6,54.5
		C211.1,283.6,230.5,291.6,251.1,291.6"/>
	<path class="st1" d="M325.2,210.9c-2-2.1-4.7-3.3-7.6-3.3h-49.2c-3.6,0-6.9,1.8-8.8,4.8l-3.9-17.7c-1.1-4.8-5.2-8.2-10.1-8.3
		l-0.1,0c-4.9,0-9.1,3.3-10.2,8.1l-1.3,5.6c-2-2.3-4.8-3.6-7.9-3.6c-0.3,0-0.6,0-0.8,0c-4.7,0.4-8.6,3.9-9.5,8.5l-4,21.2
		c-1.1,5.7,2.7,11.2,8.4,12.2c0.6,0.1,1.3,0.2,1.9,0.2c1.4,0,2.8-0.3,4-0.8l0.5,1.4c1.5,4.1,5.5,6.9,9.9,6.9c0.2,0,0.4,0,0.6,0
		c3-0.2,5.8-1.7,7.6-4l1.3,6c1,4.5,4.7,7.8,9.2,8.2c0.3,0,0.7,0.1,1,0.1c4.2,0,7.9-2.5,9.6-6.3l9.4-21.6h30.1
		c-6.3,24.6-28.6,42-54.3,42c-30.9,0-56.1-25.2-56.1-56.1c0-30.9,25.2-56.1,56.1-56.1c23.1,0,43.6,13.9,52.2,35.4
		c1.6,4,5.4,6.6,9.7,6.6c1.3,0,2.6-0.2,3.9-0.7c5.4-2.1,8-8.2,5.9-13.6c-5.6-14.2-15.3-26.3-27.9-35c-12.9-8.9-28-13.6-43.8-13.6
		c-20.6,0-39.9,8-54.5,22.6C182,174.6,174,193.9,174,214.5c0,20.6,8,39.9,22.6,54.5c14.6,14.6,33.9,22.6,54.5,22.6
		c41,0,74.8-32,77-73C328.2,215.8,327.1,212.9,325.2,210.9"/>
	<path class="st2" d="M251.1,282.5c-37.5,0-67.9-30.5-67.9-67.9c0-37.5,30.5-67.9,67.9-67.9c13.9,0,27.2,4.2,38.6,12
		c11.1,7.7,19.6,18.3,24.6,30.9c0.2,0.5,0,1-0.5,1.2c-0.5,0.2-1,0-1.2-0.5c-10.1-25.3-34.2-41.7-61.4-41.7c-36.4,0-66,29.6-66,66
		c0,36.4,29.6,66,66,66c34.8,0,63.5-26.9,65.9-61.5h-47.8l-12,27.5c-0.2,0.4-0.6,0.6-1,0.6c-0.4,0-0.7-0.3-0.8-0.7l-9.9-45.3
		l-8.2,35c-0.1,0.4-0.5,0.7-0.9,0.7c-0.4,0-0.8-0.2-1-0.6l-9.3-25.6l-3.4,17.9c-0.1,0.5-0.6,0.9-1.1,0.8c-0.5-0.1-0.9-0.6-0.8-1.1
		l4-21.3c0.1-0.4,0.4-0.7,0.9-0.8c0.4,0,0.8,0.2,1,0.6l9.4,25.9l8.4-35.9c0.1-0.4,0.5-0.7,0.9-0.7c0.4,0,0.8,0.3,0.9,0.7l10.1,46.6
		l11.1-25.4c0.2-0.3,0.5-0.6,0.9-0.6H318c0.3,0,0.5,0.1,0.7,0.3c0.2,0.2,0.3,0.4,0.3,0.7C317,254.2,287.2,282.5,251.1,282.5"/>
	<path class="st1" d="M146.2,346c-8.1,0-14.9-2.9-20.3-8.5c-5.4-5.6-8.2-12.7-8.2-21c0-3.9,0.8-7.7,2.2-11.2
		c1.5-3.5,3.7-6.7,6.5-9.5c2.8-2.7,5.9-4.8,9.2-6.1c3.4-1.3,7.1-2,11.2-2c5.4,0,10.4,1.3,14.7,4c4.3,2.6,7.8,6.4,10.4,11.3l0.9,1.7
		h-9l-0.3-0.4c-2.4-3.1-5-5.4-7.8-6.9c-2.7-1.4-5.8-2.2-9.2-2.2c-5.8,0-10.8,2.1-14.9,6.3c-4,4.2-6.1,9.3-6.1,15.2
		c0,6.3,2,11.6,6.1,15.7c4.1,4.2,9,6.3,15,6.3c4.6,0,8.9-1.5,12.5-4.5c3.3-2.7,5.6-6.1,6.9-10.2h-26.8v-7.1h35.8L175,318
		c-0.5,8.1-3.4,14.9-8.8,20.1C160.8,343.3,154.1,346,146.2,346"/>
	<path class="st1" d="M140.4,317.9h33.5c-0.4,7.8-3.3,14.3-8.5,19.3c-5.2,5-11.6,7.6-19.2,7.6c-7.8,0-14.3-2.7-19.5-8.1
		c-5.2-5.4-7.9-12.2-7.9-20.2c0-3.8,0.7-7.3,2.1-10.7c1.4-3.4,3.5-6.4,6.3-9.1c2.7-2.6,5.6-4.6,8.8-5.9c3.2-1.3,6.8-1.9,10.8-1.9
		c5.2,0,9.9,1.3,14.1,3.8c4.2,2.5,7.5,6.1,10,10.8h-6.5c-2.5-3.2-5.3-5.6-8.2-7.2c-2.9-1.5-6.1-2.3-9.7-2.3
		c-6.2,0-11.4,2.2-15.7,6.6c-4.3,4.4-6.4,9.7-6.4,16c0,6.6,2.1,12.1,6.4,16.5c4.3,4.4,9.5,6.6,15.8,6.6c4.9,0,9.4-1.6,13.3-4.7
		c3.9-3.2,6.5-7.2,7.6-12.3h-27.2V317.9z"/>
	<path class="st1" d="M194.7,344.9c-5.4,0-10.1-1.9-13.9-5.8c-3.8-3.8-5.8-8.5-5.8-13.9c0-5.4,1.9-10.1,5.8-13.9
		c3.8-3.8,8.5-5.8,13.9-5.8c5.4,0,10.1,1.9,13.9,5.8c3.8,3.8,5.8,8.5,5.8,13.9s-1.9,10.1-5.8,13.9
		C204.8,343,200.1,344.9,194.7,344.9 M194.7,311.6c-3.8,0-7,1.3-9.7,4c-2.7,2.7-4,5.8-4,9.7c0,3.8,1.3,7,4,9.7c2.7,2.7,5.8,4,9.7,4
		s7-1.3,9.6-4c2.7-2.7,4-5.8,4-9.7c0-3.8-1.3-7-4-9.7C201.7,312.9,198.5,311.6,194.7,311.6"/>
	<path class="st1" d="M194.7,343.7c-5.1,0-9.5-1.8-13.1-5.4c-3.6-3.6-5.4-8-5.4-13.1c0-5.1,1.8-9.5,5.4-13.1c3.6-3.6,8-5.4,13.1-5.4
		c5.1,0,9.5,1.8,13.1,5.4c3.6,3.6,5.4,8,5.4,13.1c0,5.1-1.8,9.5-5.4,13.1C204.2,341.9,199.8,343.7,194.7,343.7 M194.7,340
		c4.1,0,7.6-1.4,10.5-4.3c2.9-2.9,4.3-6.4,4.3-10.5s-1.4-7.6-4.3-10.5c-2.9-2.9-6.4-4.3-10.5-4.3c-4.1,0-7.6,1.4-10.5,4.3
		c-2.9,2.9-4.3,6.4-4.3,10.5s1.4,7.6,4.3,10.5C187.1,338.6,190.6,340,194.7,340"/>
	<path class="st1" d="M214.3,325.2c0-5.4,1.9-10.1,5.8-13.9c3.8-3.8,8.5-5.8,13.9-5.8c5.4,0,10.1,1.9,13.9,5.8
		c3.8,3.8,5.8,8.5,5.8,13.9v19.6h-6v-19.6c0-3.8-1.3-7-4-9.7c-2.7-2.7-5.8-4-9.7-4c-3.8,0-7,1.3-9.7,4c-2.7,2.7-4,5.8-4,9.7v15.3
		l-6,6V325.2z"/>
	<path class="st1" d="M252.4,325.2v18.5h-3.7v-18.5c0-4.1-1.4-7.6-4.3-10.5c-2.9-2.9-6.4-4.3-10.5-4.3c-4.1,0-7.6,1.4-10.5,4.3
		c-2.9,2.9-4.3,6.4-4.3,10.5V340l-3.7,3.7v-18.5c0-5.1,1.8-9.5,5.4-13.1c3.6-3.6,8-5.4,13.1-5.4c5.1,0,9.5,1.8,13.1,5.4
		C250.6,315.8,252.4,320.1,252.4,325.2"/>
	<path class="st1" d="M273.2,359.7c-5.4,0-10.1-1.9-13.9-5.8l-0.8-0.8l4.2-4.2l0.8,0.8c2.7,2.7,5.8,4,9.6,4c3.8,0,7-1.3,9.7-4
		c2.7-2.7,4-5.8,4-9.6v-0.7c-3.8,3.7-8.4,5.5-13.6,5.5c-5.4,0-10.1-1.9-13.9-5.8c-3.8-3.8-5.8-8.5-5.8-13.9c0-5.4,1.9-10.1,5.8-13.9
		c3.8-3.8,8.5-5.8,13.9-5.8c5.4,0,10.1,1.9,13.9,5.8c3.8,3.8,5.8,8.5,5.8,13.9V340c0,5.4-1.9,10.1-5.8,13.9
		C283.2,357.8,278.6,359.7,273.2,359.7 M273.2,311.6c-3.8,0-7,1.3-9.6,4c-2.7,2.7-4,5.8-4,9.7c0,3.8,1.3,7,4,9.7
		c2.7,2.7,5.8,4,9.6,4c3.8,0,7-1.3,9.7-4c2.7-2.7,4-5.8,4-9.7c0-3.8-1.3-7-4-9.7C280.1,312.9,277,311.6,273.2,311.6"/>
	<path class="st1" d="M288,336.4c-0.5,0.7-1.1,1.3-1.7,1.9c-3.6,3.6-8,5.4-13.1,5.4c-5.1,0-9.5-1.8-13.1-5.4
		c-3.6-3.6-5.4-8-5.4-13.1c0-5.1,1.8-9.5,5.4-13.1c3.6-3.6,8-5.4,13.1-5.4c5.1,0,9.5,1.8,13.1,5.4c3.6,3.6,5.4,8,5.4,13.1V340
		c0,5.1-1.8,9.5-5.4,13.1c-3.6,3.6-8,5.4-13.1,5.4c-5.1,0-9.5-1.8-13.1-5.4l2.6-2.6c2.9,2.9,6.4,4.3,10.5,4.3
		c4.1,0,7.6-1.4,10.5-4.3c2.9-2.9,4.3-6.4,4.3-10.5V336.4z M273.2,310.5c-4.1,0-7.6,1.4-10.5,4.3c-2.9,2.9-4.3,6.4-4.3,10.5
		c0,4.1,1.4,7.6,4.3,10.5c2.9,2.9,6.4,4.3,10.5,4.3c4.1,0,7.6-1.4,10.5-4.3c2.9-2.9,4.3-6.4,4.3-10.5c0-4.1-1.4-7.6-4.3-10.5
		C280.8,311.9,277.3,310.5,273.2,310.5"/>
	<path class="st1" d="M326,340.5v-1.1c-3.8,3.7-8.4,5.5-13.6,5.5c-5.4,0-10.1-1.9-13.9-5.8c-3.8-3.8-5.8-8.5-5.8-13.9
		c0-5.4,1.9-10.1,5.8-13.9c3.8-3.8,8.5-5.8,13.9-5.8s10.1,1.9,13.9,5.8c3.8,3.8,5.8,8.5,5.8,13.9v21.3L326,340.5z M312.4,311.6
		c-3.8,0-7,1.3-9.6,4c-2.7,2.7-4,5.8-4,9.7c0,3.8,1.3,7,4,9.7c2.7,2.7,5.8,4,9.6,4c3.8,0,7-1.3,9.7-4c2.7-2.7,4-5.8,4-9.7
		c0-3.8-1.3-7-4-9.7C319.4,312.9,316.2,311.6,312.4,311.6"/>
	<path class="st1" d="M327.2,336.4c-0.5,0.7-1.1,1.3-1.7,1.9c-3.6,3.6-8,5.4-13.1,5.4c-5.1,0-9.5-1.8-13.1-5.4
		c-3.6-3.6-5.4-8-5.4-13.1c0-5.1,1.8-9.5,5.4-13.1c3.6-3.6,8-5.4,13.1-5.4c5.1,0,9.5,1.8,13.1,5.4c3.6,3.6,5.4,8,5.4,13.1v18.5
		l-3.7-3.7V336.4z M312.4,340c4.1,0,7.6-1.4,10.5-4.3c2.9-2.9,4.3-6.4,4.3-10.5s-1.4-7.6-4.3-10.5c-2.9-2.9-6.4-4.3-10.5-4.3
		s-7.6,1.4-10.5,4.3c-2.9,2.9-4.3,6.4-4.3,10.5s1.4,7.6,4.3,10.5C304.8,338.6,308.3,340,312.4,340"/>
	<polygon class="st2" points="346.7,340.5 346.7,296.8 331.9,296.8 331.9,290.8 367.5,290.8 367.5,296.8 352.7,296.8 352.7,346.5 	
		"/>
	<polygon class="st2" points="351.6,295.7 351.6,343.7 347.9,340 347.9,295.7 333.1,295.7 333.1,292 366.4,292 366.4,295.7 	"/>
	<polygon class="st2" points="357.1,305.6 363.5,305.6 374,334.5 384.5,305.6 390.9,305.6 374,352 	"/>
	<polygon class="st2" points="362.7,306.8 374,337.9 385.3,306.8 389.3,306.8 374,348.7 358.8,306.8 	"/>
</g>
</svg>
