<?xml version="1.0" encoding="utf-8"?>
<!-- Generator: Adobe Illustrator 23.0.5, SVG Export Plug-In . SVG Version: 6.00 Build 0)  -->
<svg version="1.1" id="Layer_1" xmlns="http://www.w3.org/2000/svg" xmlns:xlink="http://www.w3.org/1999/xlink" x="0px" y="0px"
	 viewBox="0 0 512 512" style="enable-background:new 0 0 512 512;" xml:space="preserve">
<style type="text/css">
	.st0{fill:#FFA402;}
	.st1{fill:#FBDF63;}
	.st2{fill:#D9F0C3;}
	.st3{fill:#ED2061;}
</style>
<g>
	<path class="st0" d="M287,234.5v35.8c0,4.2-3.4,7.7-7.7,7.7c-3.4,0-6.4-2.2-7.3-5.4l-23.2-3.3v14.1c0,2.1-1.7,3.8-3.8,3.8
		s-3.8-1.7-3.8-3.8v-15.2l-1-0.1c-4.9-0.6-8.5-4.8-8.5-9.7v-2.3h-7.1c-2.1,0-3.8-1.7-3.8-3.8c0-2.1,1.7-3.8,3.8-3.8h7.1v-2.3
		c0-4.9,3.7-9,8.5-9.7l31.8-4.3c1-3.1,3.9-5.4,7.3-5.4C283.6,226.8,287,230.2,287,234.5z"/>
	<path class="st0" d="M232.6,310.1c0,2.1-1.7,3.8-3.8,3.8h-16.4c-2.1,0-3.8-1.7-3.8-3.8c0-2.1,1.7-3.8,3.8-3.8h16.4
		C230.9,306.3,232.6,308,232.6,310.1z"/>
	<path class="st0" d="M242.9,328c0,2.1-1.7,3.8-3.8,3.8h-26.6c-2.1,0-3.8-1.7-3.8-3.8s1.7-3.8,3.8-3.8h26.6
		C241.2,324.2,242.9,325.9,242.9,328z"/>
	<path class="st0" d="M280.5,351.1c0,2.1-1.7,3.8-3.8,3.8h-41.5c-2.1,0-3.8-1.7-3.8-3.8c0-2.1,1.7-3.8,3.8-3.8h41.5
		C278.8,347.3,280.5,349,280.5,351.1z"/>
	<path class="st0" d="M303.1,200c0,2.1-1.7,3.8-3.8,3.8h-16.4c-2.1,0-3.8-1.7-3.8-3.8s1.7-3.8,3.8-3.8h16.4
		C301.4,196.2,303.1,197.9,303.1,200z"/>
	<path class="st0" d="M303.1,182.2c0,2.1-1.7,3.8-3.8,3.8h-26.6c-2.1,0-3.8-1.7-3.8-3.8c0-2.1,1.7-3.8,3.8-3.8h26.6
		C301.4,178.4,303.1,180.1,303.1,182.2z"/>
	<path class="st0" d="M276.7,136.4h-41.5c-2.1,0-3.8,1.7-3.8,3.8c0,2.1,1.7,3.8,3.8,3.8h41.5c2.1,0,3.8-1.7,3.8-3.8
		C280.5,138.1,278.8,136.4,276.7,136.4z M289,295.5c-9.1,0-16.5,7.4-16.5,16.5s7.4,16.5,16.5,16.5h1.5l8.6,11.9
		c0.7,1,1.9,1.6,3.1,1.6s2.4-0.6,3.1-1.6l8.6-11.9h2v-33H289z"/>
	<path class="st0" d="M303.9,125.2H197.8c-15.1,0-27.3,12.2-27.3,27.3v206.9c0,15,12.2,27.3,27.3,27.3h106.1
		c15.1,0,27.3-12.3,27.3-27.3V152.5C331.2,137.4,319,125.2,303.9,125.2z M235.2,136.4h41.5c2.1,0,3.8,1.7,3.8,3.8
		c0,2.1-1.7,3.8-3.8,3.8h-41.5c-2.1,0-3.8-1.7-3.8-3.8C231.4,138.1,233.1,136.4,235.2,136.4z M326.1,360.1c0,6.7-5.4,12.1-12.1,12.1
		H198c-6.7,0-12.1-5.4-12.1-12.1V151.9c0-6.7,5.4-12.1,12.1-12.1h12c1.7,0,3.1,1.1,3.6,2.7l3,9.3c0.7,2.3,2.9,3.9,5.3,3.9h67.9
		c2.4,0,4.6-1.6,5.3-3.9l3-9.3c0.5-1.6,2-2.7,3.6-2.7H314c6.6,0,12.1,5.4,12.1,12.1V360.1z"/>
	<path class="st1" d="M341.4,152.5v206.9c0,15.1-12.2,27.3-27.3,27.3h-10.2c15.1,0,27.3-12.3,27.3-27.3V152.5
		c0-15.1-12.2-27.3-27.3-27.3h10.2C329.1,125.2,341.4,137.5,341.4,152.5z"/>
	<path class="st2" d="M289,295.5h26.9V151.9c0-6.7-5.4-12.1-12.1-12.1h-2.1c-1.6,0-3.1,1.1-3.6,2.7l-3,9.3c-0.7,2.3-2.9,3.9-5.3,3.9
		h-67.9c-2.4,0-4.6-1.6-5.3-3.9l-3-9.3c-0.5-1.6-1.9-2.7-3.6-2.7h-12c-6.7,0-12.1,5.4-12.1,12.1v208.2c0,6.7,5.4,12.1,12.1,12.1
		h105.8c6.7,0,12.1-5.4,12.1-12.1v-31.6h-2l-8.6,11.9c-0.7,1-1.9,1.6-3.1,1.6s-2.4-0.6-3.1-1.6l-8.6-11.9H289
		c-9.1,0-16.5-7.4-16.5-16.5S279.9,295.5,289,295.5z M299.3,203.8h-16.4c-2.1,0-3.8-1.7-3.8-3.8s1.7-3.8,3.8-3.8h16.4
		c2.1,0,3.8,1.7,3.8,3.8S301.4,203.8,299.3,203.8z M272.7,178.4h26.6c2.1,0,3.8,1.7,3.8,3.8c0,2.1-1.7,3.8-3.8,3.8h-26.6
		c-2.1,0-3.8-1.7-3.8-3.8C268.9,180.1,270.6,178.4,272.7,178.4z M212.4,306.3h16.4c2.1,0,3.8,1.7,3.8,3.8c0,2.1-1.7,3.8-3.8,3.8
		h-16.4c-2.1,0-3.8-1.7-3.8-3.8C208.6,308,210.3,306.3,212.4,306.3z M208.7,328c0-2.1,1.7-3.8,3.8-3.8h26.6c2.1,0,3.8,1.7,3.8,3.8
		s-1.7,3.8-3.8,3.8h-26.6C210.4,331.8,208.7,330.1,208.7,328z M276.7,347.3c2.1,0,3.8,1.7,3.8,3.8c0,2.1-1.7,3.8-3.8,3.8h-41.5
		c-2.1,0-3.8-1.7-3.8-3.8c0-2.1,1.7-3.8,3.8-3.8H276.7z M272,272.6l-23.2-3.3v14.1c0,2.1-1.7,3.8-3.8,3.8s-3.8-1.7-3.8-3.8v-15.2
		l-1-0.1c-4.9-0.6-8.5-4.8-8.5-9.7v-2.3h-7.1c-2.1,0-3.8-1.7-3.8-3.8c0-2.1,1.7-3.8,3.8-3.8h7.1v-2.3c0-4.9,3.7-9,8.5-9.7l31.8-4.3
		c1-3.1,3.9-5.4,7.3-5.4c4.3,0,7.7,3.4,7.7,7.7v35.8c0,4.2-3.4,7.7-7.7,7.7C275.9,278,272.9,275.8,272,272.6z"/>
	<path class="st2" d="M287,234.5v35.8c0,4.2-3.4,7.7-7.7,7.7c-3.4,0-6.4-2.2-7.3-5.4l-23.2-3.3v14.1c0,2.1-1.7,3.8-3.8,3.8
		s-3.8-1.7-3.8-3.8v-15.2l-1-0.1c-4.9-0.6-8.5-4.8-8.5-9.7v-2.3h-7.1c-2.1,0-3.8-1.7-3.8-3.8c0-2.1,1.7-3.8,3.8-3.8h7.1v-2.3
		c0-4.9,3.7-9,8.5-9.7l31.8-4.3c1-3.1,3.9-5.4,7.3-5.4C283.6,226.8,287,230.2,287,234.5z"/>
	<path class="st2" d="M232.6,310.1c0,2.1-1.7,3.8-3.8,3.8h-16.4c-2.1,0-3.8-1.7-3.8-3.8c0-2.1,1.7-3.8,3.8-3.8h16.4
		C230.9,306.3,232.6,308,232.6,310.1z"/>
	<path class="st2" d="M242.9,328c0,2.1-1.7,3.8-3.8,3.8h-26.6c-2.1,0-3.8-1.7-3.8-3.8s1.7-3.8,3.8-3.8h26.6
		C241.2,324.2,242.9,325.9,242.9,328z"/>
	<path class="st2" d="M280.5,351.1c0,2.1-1.7,3.8-3.8,3.8h-41.5c-2.1,0-3.8-1.7-3.8-3.8c0-2.1,1.7-3.8,3.8-3.8h41.5
		C278.8,347.3,280.5,349,280.5,351.1z"/>
	<path class="st2" d="M303.1,200c0,2.1-1.7,3.8-3.8,3.8h-16.4c-2.1,0-3.8-1.7-3.8-3.8s1.7-3.8,3.8-3.8h16.4
		C301.4,196.2,303.1,197.9,303.1,200z"/>
	<path class="st2" d="M303.1,182.2c0,2.1-1.7,3.8-3.8,3.8h-26.6c-2.1,0-3.8-1.7-3.8-3.8c0-2.1,1.7-3.8,3.8-3.8h26.6
		C301.4,178.4,303.1,180.1,303.1,182.2z"/>
	<path class="st2" d="M315.9,295.5v33h-2l-8.6,11.9c-0.7,1-1.9,1.6-3.1,1.6s-2.4-0.6-3.1-1.6l-8.6-11.9H289
		c-9.1,0-16.5-7.4-16.5-16.5s7.4-16.5,16.5-16.5H315.9z"/>
	<path class="st1" d="M326.1,151.9v208.2c0,6.7-5.4,12.1-12.1,12.1h-10.2c6.7,0,12.1-5.4,12.1-12.1V151.9c0-6.7-5.4-12.1-12.1-12.1
		H314C320.6,139.8,326.1,145.2,326.1,151.9z"/>
	<path class="st1" d="M280.5,140.2c0,2.1-1.7,3.8-3.8,3.8h-41.5c-2.1,0-3.8-1.7-3.8-3.8c0-2.1,1.7-3.8,3.8-3.8h41.5
		C278.8,136.4,280.5,138.1,280.5,140.2z"/>
	<path class="st1" d="M280.5,351.1c0,2.1-1.7,3.8-3.8,3.8h-41.5c-2.1,0-3.8-1.7-3.8-3.8c0-2.1,1.7-3.8,3.8-3.8h41.5
		C278.8,347.3,280.5,349,280.5,351.1z"/>
	<g>
		<path class="st0" d="M239.3,252.3c0,2.1-1.7,3.8-3.8,3.8h-10.9c-2.1,0-3.8-1.7-3.8-3.8c0-2.1,1.7-3.8,3.8-3.8h10.9
			C237.7,248.5,239.3,250.2,239.3,252.3z"/>
		<path class="st0" d="M248.8,265v18.4c0,2.1-1.7,3.8-3.8,3.8s-3.8-1.7-3.8-3.8v-18.5c0-2.1,1.7-3.8,3.8-3.8S248.8,262.8,248.8,265z
			"/>
	</g>
	<path class="st1" d="M282.4,230.8v43.3l-10.5-1.5l-23.2-3.3l-7.6-1.1l-1-0.1c-4.9-0.6-8.5-4.8-8.5-9.7v-12.2c0-4.9,3.7-9,8.5-9.7
		l31.8-4.3L282.4,230.8z"/>
	<path class="st0" d="M287,234.5v35.8c0,4.2-3.4,7.7-7.7,7.7c-3.4,0-6.4-2.2-7.3-5.4c-0.2-0.7-0.4-1.5-0.4-2.3v-35.8
		c0-0.8,0.1-1.6,0.4-2.3c1-3.1,3.9-5.4,7.3-5.4C283.6,226.8,287,230.2,287,234.5z"/>
	<path class="st1" d="M315.9,295.5v33h-2l-8.6,11.9c-0.7,1-1.9,1.6-3.1,1.6s-2.4-0.6-3.1-1.6l-8.6-11.9H289
		c-9.1,0-16.5-7.4-16.5-16.5s7.4-16.5,16.5-16.5H315.9z"/>
	<g>
		<path class="st3" d="M232.6,310.1c0,2.1-1.7,3.8-3.8,3.8h-16.4c-2.1,0-3.8-1.7-3.8-3.8c0-2.1,1.7-3.8,3.8-3.8h16.4
			C230.9,306.3,232.6,308,232.6,310.1z"/>
		<path class="st3" d="M242.9,328c0,2.1-1.7,3.8-3.8,3.8h-26.6c-2.1,0-3.8-1.7-3.8-3.8s1.7-3.8,3.8-3.8h26.6
			C241.2,324.2,242.9,325.9,242.9,328z"/>
		<path class="st3" d="M303.1,200c0,2.1-1.7,3.8-3.8,3.8h-16.4c-2.1,0-3.8-1.7-3.8-3.8s1.7-3.8,3.8-3.8h16.4
			C301.4,196.2,303.1,197.9,303.1,200z"/>
		<path class="st3" d="M303.1,182.2c0,2.1-1.7,3.8-3.8,3.8h-26.6c-2.1,0-3.8-1.7-3.8-3.8c0-2.1,1.7-3.8,3.8-3.8h26.6
			C301.4,178.4,303.1,180.1,303.1,182.2z"/>
	</g>
</g>
</svg>
