<?xml version="1.0" encoding="utf-8"?>
<!-- Generator: Adobe Illustrator 23.0.5, SVG Export Plug-In . SVG Version: 6.00 Build 0)  -->
<svg  version="1.1" id="Layer_1" xmlns="http://www.w3.org/2000/svg" xmlns:xlink="http://www.w3.org/1999/xlink" x="0px" y="0px"
	 viewBox="0 0 512 512" style="enable-background:new 0 0 512 512;" xml:space="preserve">
<style type="text/css">
	.st0{fill:#0A172F;}
	.st1{fill:#B92026;}
	.st2{font-family:'BigJohn';}
	.st3{font-size:54.4221px;}
	.st4{letter-spacing:3;}
</style>
<g>
	<g>
		<path class="st0" d="M159.9,235.3c-11.1-7.9-22.7-12.8-33.4-15.7l-2.5-9.1c9.6,0.2,20.1,1.2,31.1,3.9L159.9,235.3z"/>
		<path class="st0" d="M216.4,227c-2.5-1.8-5.1-3.4-7.8-5.1c-10.1-6.1-20.3-10.6-30.2-13.9c0.4-2.1,0.9-4.3,1.3-6.5
			c0.3-0.8,1.1-1.5,2-1.5h27.8c0.9,0,1.6,0.7,1.9,1.5L216.4,227z"/>
		<path class="st0" d="M188,308.2l-7.5-0.2c-0.2,0.1-0.5,0.2-0.7,0.2h-27.5c-0.8,0-1.6-0.7-1.9-1.4l-10.3-37.7l0,0l-8.8-32
			c7.2,3.3,14.3,7.5,21.2,13.1c5.4,4.3,10,9,13.9,13.7l0,0l0.2,1.1c0-0.2,0.1-0.4,0.1-0.6c8.9,10.8,14.2,22,17.4,30.8l0,0
			C186.2,300.6,187.3,305.2,188,308.2z"/>
		<path class="st0" d="M246.4,287.5L246.4,287.5l-5.3,19.3c0,0.1-0.1,0.2-0.2,0.3c-0.4,0.6-1,1.1-1.7,1.1h-27.5
			c-0.4,0-0.7-0.2-1.1-0.4c-0.4-0.3-0.7-0.7-0.9-1.1l-14.1-65.2c-1.9,8.5-3.7,16.9-5.5,25.3c-2.1-15.7-7.4-30.4-15.1-43.4
			c0.2-0.8,0.4-1.6,0.5-2.5c3.9,1.6,7.9,3.4,11.8,5.5c13.7,7.2,24.8,16,33.6,25c1.6,1.6,3.1,3.3,4.6,4.9
			C235.4,267.3,242,278.4,246.4,287.5z"/>
		<path class="st0" d="M265.6,217.7l-10.9,39.8l-1.8,6.4c-5.9-8.7-13.4-17.7-22.9-26.1l6.2-26.7V211c0.6-2.4,1.5-4.4,2.7-6
			C247.9,208.4,256.8,212.6,265.6,217.7z"/>
		<path class="st0" d="M342.9,305.7c-0.4,0.2-0.8,0.3-1.2,0.5c-4.1,1.5-8.3,2.5-12.7,3c-6.2,0.6-11.7,0.9-16.4,0.9
			c-6.5,0-12.5-1.2-17.9-3.5c-2.8-1.2-5.5-2.7-8-4.5c-7.6-5.5-11.3-14.4-11.3-26.9c0-11.6,3.5-20,10.3-25c4-3,8.7-5.3,13.9-7
			c6.7,6.4,12.5,12.8,17.5,19.2l-1,0.2h0.1c-4.4,1.1-7.3,2.6-9,4.3c-1.6,2.4-2.4,5.2-2.4,7.5c0,3.5,0.8,6,2.8,8
			c1.9,1.7,5,2.6,8.9,2.6c5.6,0,10.1-1.3,13.7-3.9C336.1,290.9,340.2,299.4,342.9,305.7z"/>
	</g>
	<g>
		<g>
			<path class="st1" d="M155.1,214.4c-11-2.6-21.5-3.7-31.1-3.9l-2.2-8c-0.3-0.9,0.1-1.7,0.7-2.1l0,0l0,0c0.3-0.2,0.7-0.3,1-0.3
				h26.8c0.9,0,1.6,0.8,1.9,1.5l0.1,0.4L155.1,214.4z"/>
			<path class="st1" d="M221.2,251.5c-8.9-9.1-19.9-17.8-33.6-25c-3.9-2.1-7.9-3.9-11.8-5.5c0.9-4.2,1.8-8.5,2.7-12.9
				c10,3.3,20.1,7.8,30.2,13.9c2.7,1.6,5.3,3.3,7.8,5.1L221.2,251.5z"/>
			<path class="st1" d="M269.8,202.5l-4.2,15.2c-8.8-5.1-17.7-9.3-26.6-12.7c2.5-3.3,6.4-5,11.7-5h17.2
				C269.4,200.1,270.1,201.2,269.8,202.5z"/>
			<path class="st1" d="M117,245.8c-0.1-5.3-0.7-10.2-1.7-14.5c-1.4-6-3.6-11-6.8-15.2l0,0c-1.3-1.7-2.7-3.3-4.3-4.7l0,0
				c-1.3-1.2-2.7-2.2-4.2-3.2c-2.5-1.6-5-3-7.5-4.2c-0.1-0.1-0.3-0.1-0.4-0.2l0,0c-7.9-3.7-16.4-5.7-25.4-6c-0.8,0-1.7,0-2.5,0
				c-17.1,0-29.6,5.3-37.5,15.8c-7.7,10.4-11.6,24-11.6,40.5c0,14.3,3,25.8,8.7,34.7c5.8,8.8,12.9,14.9,21.2,18.1
				c4.2,1.7,8.3,2.6,12.5,2.9c1.1,0.1,2.1,0.1,3.2,0.1c3.1,0,6-0.2,9.2-1c6.1-1.5,12.2-5.3,16.5-9.7v0.7c-0.5,7.8-2.4,13.7-5.6,17.6
				c-3.2,3.8-6.7,6.2-10.6,6.9c-1.3,0.3-2.5,0.4-3.7,0.4s-2.3-0.1-3.5-0.3c-1.5-0.2-3-0.7-4.6-1.4c-3.9-1.7-6.8-4.3-8.7-7.6
				c-0.3-0.5-1-1-1.7-1H19.5c-1.5,0-2.1,1.1-1.8,2.4c6,23.4,21.5,35.2,46.5,35.2c4.6,0,9.1-0.5,13.5-1.3c7.8-1.6,15.3-4.5,22.4-8.9
				c11.3-7.1,17-20.2,17-39.1v-55.2C117.1,247,117.1,246.4,117,245.8z M85.7,263.8c-1,6-2.6,10.1-4.7,12.7c-3.5,4.8-8.5,7.1-15,7.1
				c-1.7,0-3.9-0.3-6.2-0.6c-3.5-0.7-6.3-2.4-8.5-5.1l0,0c-3.7-4.6-5.6-12.3-5.6-22.9c0-8.2,1.5-15.3,4.5-21.5c1.2-2.6,3-4.6,5.4-6
				c2.9-1.8,6.5-2.7,10.9-2.7c3.7,0,7,0.9,9.5,2.7c1.4,0.9,2.6,2.1,3.7,3.6l0,0c3.2,4.4,5.3,9.6,6.1,15.2c0.4,2.7,0.7,5.8,0.7,8.3
				C86.6,257.5,86.3,260.6,85.7,263.8z"/>
			<path class="st1" d="M190.3,266.9L190.3,266.9l-0.3,1.2c-2,9-3.9,17.9-5.8,27c-3.2-8.8-8.5-20-17.4-30.8l0,0
				c1.4-6.9,2.7-13.5,4.1-20l0,0c1.4-6.9,2.9-13.8,4.3-20.7C182.9,236.5,188.2,251.2,190.3,266.9z"/>
			<path class="st1" d="M166.4,263.8c-3.9-4.7-8.5-9.3-13.9-13.7c-6.9-5.6-14.1-9.8-21.2-13.1l-4.8-17.4c10.7,3,22.2,7.9,33.4,15.7
				L166.4,263.8z"/>
			<path class="st1" d="M252.9,263.9l-6.5,23.5c-4.4-9.1-11.1-20.2-20.7-31.1l4.3-18.6C239.5,246.3,247,255.3,252.9,263.9z"/>
			<path class="st1" d="M402.6,184.4v121.9c0,1.1-0.8,1.9-1.9,1.9h-27.5c-1.1,0-1.9-0.8-1.9-1.9V171.5c0-1.1,0.8-2,1.9-2h14.1
				c4.2,0,7.8,1.4,10.8,4.2S402.6,180,402.6,184.4z"/>
			<path class="st1" d="M484.7,205.6c-7.6-5.2-19-7.8-34-7.8c-13.5,0-24.1,3.3-31.4,9.4c-6.6,5.7-10.5,12.7-11.6,21.2
				c-0.3,1.2,0.7,2.2,1.9,2.2h26.2c0.7,0,1.4-0.4,1.7-1.1c2.3-5,7.6-6.3,14.4-6.3c3.2,0,6.8,0.5,10.5,1.6c3.1,0.9,4.7,2.8,4.7,5.8
				c0,4-5.7,6.8-15.5,8.3c-2.3,0.3-4.2,0.5-6,0.8c-2,0.4-3.7,0.7-5.1,0.7c-10.2,1.7-18.5,4.9-25.3,9.8c-6.9,5.1-10.4,13.4-10.4,25
				c0,12.5,3.8,21.4,11.3,26.9c7.4,5.4,16,8,25.9,8c4.8,0,10.2-0.3,16.4-0.9c6.4-0.7,12.5-2.5,18.1-5.5c5.6-2.8,10.3-7.3,14.3-13.5
				c3.9-6.1,6-14.6,6-25.5V229C497,218.9,492.9,211.1,484.7,205.6z M467.6,263.5c0,6.8-1.9,12.2-5.7,15.9c-3.7,3.7-9,5.7-15.8,5.7
				c-3.9,0-7-0.9-8.9-2.6c-2-2-2.8-4.4-2.8-8c0-2.3,0.8-5.1,2.4-7.5c1.7-1.6,4.7-3.1,9-4.3h-0.1l2.2-0.5c1.5-0.3,3.7-0.7,6.8-1.4
				c5.2-1.1,9.5-2.4,12.9-3.9V263.5z"/>
			<path class="st1" d="M365.6,215.2v35.6c0,10.9-2,19.5-6,25.5c-3.9,6.2-8.7,10.6-14.3,13.5c-0.7,0.4-1.4,0.7-2.1,1
				c-0.7,0.4-1.5,0.7-2.2,1c-2.7-6.3-6.8-14.8-12.7-24.5c0.8-0.5,1.5-1.1,2.2-1.8c3.7-3.8,5.7-9.1,5.7-15.9v-6.7
				c-3.3,1.5-7.7,2.8-12.9,3.9c-3.1,0.7-5.3,1.1-6.8,1.4l-1.3,0.3c-5-6.4-10.8-12.9-17.5-19.2c3.5-1.2,7.4-2.1,11.4-2.8
				c1.3,0,3-0.3,5.1-0.7c1.7-0.3,3.7-0.5,6-0.8c9.8-1.5,15.5-4.4,15.5-8.3c0-2.9-1.5-4.9-4.6-5.8c-3.7-1.1-7.3-1.6-10.5-1.6
				c-6.8,0-12.1,1.3-14.4,6.3c-0.3,0.7-1,1.1-1.7,1.1h-26.2c-1.2,0-2.2-1-1.9-2.2c0.1-0.8,0.2-1.6,0.4-2.4
				c1.5-7.4,5.3-13.7,11.3-18.8c7.3-6.1,17.9-9.4,31.4-9.4c5,0,9.5,0.3,13.7,0.9c8.4,1.2,15.2,3.5,20.3,6.9
				C361.5,197.2,365.6,205,365.6,215.2z"/>
		</g>
		<text transform="matrix(1 0 0 1 271.8582 352.1499)" class="st0 st2 st3 st4">DIGITAL</text>
	</g>
</g>
</svg>
