<?xml version="1.0" encoding="utf-8"?>
<!-- Generator: Adobe Illustrator 23.0.5, SVG Export Plug-In . SVG Version: 6.00 Build 0)  -->
<svg version="1.1" id="Layer_1" xmlns="http://www.w3.org/2000/svg" xmlns:xlink="http://www.w3.org/1999/xlink" x="0px" y="0px"
	 viewBox="0 0 512 512" style="enable-background:new 0 0 512 512;" xml:space="preserve">
<style type="text/css">
	.st0{fill:#FCBD76;}
	.st1{fill:#FBAC2C;}
	.st2{fill:#DD5C60;}
	.st3{fill:#FFFFFF;}
	.st4{fill:#F4D234;}
	.st5{fill:#FBAC2C;stroke:#FCBD76;stroke-width:0.5447;stroke-miterlimit:10;}
</style>
<g>
	<path class="st0" d="M310.1,116.3H190.3c-16.5,0-30,13.4-30,30v219c0,16.5,13.4,30,30,30h125.9v-2.7c-3,0-5.4-2.4-5.4-5.4v-8.8
		c0-8.3-9-13.7-16.3-9.4c-5.7,3.3-11.6,8.2-15,2.4L263,342.9c-0.8-1.4-0.9-3.1-0.5-4.4c0.8-2.6,2.2-2.9,10-7.5
		c7.3-4.2,7.3-14.7,0-18.9l-7.6-4.4c-2.6-1.5-3.5-4.8-2-7.4l16.3-28.3c1-1.7,2.8-2.7,4.7-2.7c1.9,0,2.1,0.4,10.3,5.1
		c7.3,4.2,16.3-1.1,16.3-9.4v-8.8c0-3,2.4-5.4,5.4-5.4h23.9V146.2C340.1,129.7,326.7,116.3,310.1,116.3z"/>
	<path class="st1" d="M310.1,116.3h-59.9v278.9h66v-2.7c-3,0-5.4-2.4-5.4-5.4v-8.8c0-8.3-9-13.7-16.3-9.4c-5.7,3.3-11.6,8.2-15,2.4
		L263,342.9c-0.8-1.4-0.9-3.1-0.5-4.4c0.8-2.6,2.2-2.9,10-7.5c7.3-4.2,7.3-14.7,0-18.9l-7.6-4.4c-2.6-1.5-3.5-4.8-2-7.4l16.3-28.3
		c1-1.7,2.8-2.7,4.7-2.7c1.9,0,2.1,0.4,10.3,5.1c7.3,4.2,16.3-1.1,16.3-9.4v-8.8c0-3,2.4-5.4,5.4-5.4h23.9V146.2
		C340.1,129.7,326.7,116.3,310.1,116.3z"/>
	<path class="st1" d="M323.2,146.8v104.6h-17.4V174H160.9v165h84.8c-0.5,1.4-0.3,3.1,0.5,4.4c17.5,30.3,16.5,29.1,18,30.1
		c3.9,2.6,6.9-0.8,13.2-4.1c0,0,0,0,0,0c8.3-4.4,16.4,1.5,16.4,9.4v8.8c0,3,2.4,5.4,5.4,5.4v2.7H173.4c-16.5,0-30-13.4-30-30v-219
		c0-16.5,13.4-30,30-30h119.8C309.8,116.8,323.2,130.3,323.2,146.8z"/>
	<g>
		<path class="st0" d="M316.1,393v2.7h-65.9v-56.6h12.3c-0.5,1.4-0.3,3.1,0.5,4.4c17.5,30.3,16.5,29.1,18,30.1
			c3.9,2.6,6.9-0.8,13.2-4.1c0,0,0,0,0,0c8.3-4.4,16.4,1.5,16.4,9.4v8.8C310.7,390.5,313.1,393,316.1,393z"/>
		<path class="st0" d="M340.1,146.8v104.6h-17.4V174h-72.4v-57.2h59.9C326.7,116.8,340.1,130.3,340.1,146.8z"/>
	</g>
	<path class="st2" d="M233.9,247.6h-32.7c-4.5,0-8.2-3.7-8.2-8.2v-32.7c0-4.5,3.7-8.2,8.2-8.2h32.7c4.5,0,8.2,3.7,8.2,8.2v32.7
		C242,243.9,238.4,247.6,233.9,247.6z"/>
	<path class="st3" d="M233.9,312.9h-32.7c-4.5,0-8.2-3.7-8.2-8.2v-32.7c0-4.5,3.7-8.2,8.2-8.2h32.7c4.5,0,8.2,3.7,8.2,8.2v32.7
		C242,309.3,238.4,312.9,233.9,312.9z"/>
	<path class="st4" d="M299.2,247.6h-32.7c-4.5,0-8.2-3.7-8.2-8.2v-32.7c0-4.5,3.7-8.2,8.2-8.2h32.7c4.5,0,8.2,3.7,8.2,8.2v32.7
		C307.4,243.9,303.8,247.6,299.2,247.6z"/>
	<path class="st5" d="M348.8,395.2h-32.7c-4.5,0-8.2-3.7-8.2-8.2v-8.8c0-6.3-6.8-10.2-12.3-7.1l-7.6,4.4c-3.9,2.3-8.9,0.9-11.2-3
		l-16.3-28.3c-2.3-3.9-0.9-8.9,3-11.2l7.6-4.4c5.4-3.1,5.5-11,0-14.2l-7.6-4.4c-3.9-2.3-5.2-7.3-3-11.2l16.3-28.3
		c2.3-3.9,7.3-5.2,11.2-3l7.6,4.4c5.4,3.1,12.3-0.8,12.3-7.1v-8.8c0-4.5,3.7-8.2,8.2-8.2h32.7c4.5,0,8.2,3.7,8.2,8.2v8.8
		c0,6.3,6.8,10.2,12.3,7.1l7.6-4.4c3.9-2.3,8.9-0.9,11.2,3l16.3,28.3c2.3,3.9,0.9,8.9-3,11.2l-7.6,4.4c-5.4,3.1-5.5,11,0,14.2
		l7.6,4.4c3.9,2.3,5.2,7.3,3,11.2L388,372.6c-2.3,3.9-7.3,5.2-11.2,3l-7.6-4.4c-5.4-3.1-12.3,0.8-12.3,7.1v8.8
		C357,391.5,353.4,395.2,348.8,395.2z"/>
	<path class="st0" d="M401.4,333.1l-7.6-4.4c-5.5-3.1-5.4-11,0-14.1l7.6-4.4c3.9-2.3,5.2-7.3,3-11.2L388,270.7
		c-2.3-3.9-7.3-5.2-11.2-3l-7.6,4.4c-5.4,3.1-12.3-0.8-12.3-7.1v-8.8c0-4.5-3.7-8.2-8.2-8.2h-16.3v147.1h16.3c4.5,0,8.2-3.7,8.2-8.2
		v-8.8c0-6.3,6.8-10.2,12.3-7.1l7.6,4.4c3.9,2.3,8.9,0.9,11.2-3l16.3-28.3C406.6,340.3,405.3,335.3,401.4,333.1z"/>
	<path class="st0" d="M332.5,346.1c-13.5,0-24.5-11-24.5-24.5c0-13.5,11-24.5,24.5-24.5c13.5,0,24.5,11,24.5,24.5
		C357,335.2,346,346.1,332.5,346.1z"/>
	<path class="st1" d="M332.5,297.1v49c13.5,0,24.5-11,24.5-24.5C357,308.1,346,297.1,332.5,297.1z"/>
</g>
</svg>
