<?xml version="1.0" encoding="utf-8"?>
<!-- Generator: Adobe Illustrator 23.0.5, SVG Export Plug-In . SVG Version: 6.00 Build 0)  -->
<svg version="1.1" id="Layer_1" xmlns="http://www.w3.org/2000/svg" xmlns:xlink="http://www.w3.org/1999/xlink" x="0px" y="0px"
	 viewBox="0 0 512 512" style="enable-background:new 0 0 512 512;" xml:space="preserve">
<style type="text/css">
	.st0{fill:#F7931E;}
	.st1{fill:#0B182F;}
</style>
<rect x="-0.2" y="0.2" class="st0" width="512" height="512"/>
<g>
	<path class="st1" d="M330.5,173.6l-16.7,63.5v0l-9.7,36.9l0,0.1l-3.5,12.7c-16.5-24.7-36.2-47-58.7-66.3c-0.9-0.8-1.9-1.6-2.8-2.4
		l5.8-21l13.5-48.7l4.2-15c13.9,6.3,27.3,13.3,40.1,21.2c0,0,0,0,0,0L330.5,173.6z"/>
	<path class="st1" d="M322,395.6H205.2c-3.6-14.6-8.1-28.8-13.6-42.5c0,0,0,0,0,0c-7.9-22.6-20.3-48.8-39.6-74.8
		c-16.7-22.5-35.3-40.5-54-54.9l0,0c-2-1.7-4.1-3.4-6.1-5c5.1-17.6,12.2-33.6,21.1-48.1c4.5,1.4,9,2.9,13.7,4.5
		c9.5,3.4,43.4,16.2,79.6,43.4c24.3,18.2,49.7,42.9,69.5,75.6c13.7,22.5,26.6,52.1,35.3,73.5C317.8,383.9,322,395.6,322,395.6z"/>
	<path class="st1" d="M178.6,395.7h-78.1c-12.5-27-18.9-59.9-18.9-98.7c0-17.5,1.3-34,3.8-49.6C131.5,284.2,165.1,336.1,178.6,395.7
		z"/>
	<path class="st1" d="M430.1,347.5v50.7c-3.2,0.3-6.4,0.5-9.7,0.5c-8.3,0-16.4-1-24.1-3c-8.9-2.3-17.4-5.8-25.1-10.3
		c-5.4-3.2-10.5-6.9-15.2-11c-5.7-5-10.8-10.7-15.1-16.9c-6.5-9.2-11.5-19.6-14.5-30.9c-0.7-2.5-1.3-5.1-1.7-7.8
		c0.9-7.1,1.3-13.9,1.3-20.5c0-5.2-0.4-10.9-0.9-16.7v0c3-14.8,9.4-28.3,18.3-39.9c8.5-11.1,19.4-20.3,31.9-26.8l8.2,10.8l4.2,5.5
		l22.4,29.5l0,0l6.3,9.6c-10.4,3.3-19,10.7-23.7,20.5c-2.5,5.2-3.9,11-3.9,17.2c0,21.8,17.7,39.5,39.5,39.5
		C428.7,347.6,429.4,347.6,430.1,347.5z"/>
	<path class="st1" d="M325.8,298.3c0,6.6-0.4,13.4-1.3,20.5c-1.1-5.7-1.6-11.6-1.6-17.6c0-6.7,0.7-13.3,2-19.6
		C325.5,287.4,325.8,293.2,325.8,298.3z"/>
	<path class="st1" d="M234.7,137.1l-10.8,53.4l-2.7,11.5c-17.3-28.5-38.9-54.2-63.9-76.1c8.2-4.9,17.2-8.9,26.8-12.1
		c9.3,3.9,17.9,7.6,17.9,7.6L234.7,137.1z"/>
</g>
</svg>
