<?xml version="1.0" encoding="utf-8"?>
<!-- Generator: Adobe Illustrator 23.0.5, SVG Export Plug-In . SVG Version: 6.00 Build 0)  -->
<svg version="1.1" id="Layer_1" xmlns="http://www.w3.org/2000/svg" xmlns:xlink="http://www.w3.org/1999/xlink" x="0px" y="0px"
	 viewBox="0 0 512 512" style="enable-background:new 0 0 512 512;" xml:space="preserve">
<style type="text/css">
	.st0{fill:#FCBD76;}
	.st1{fill:#FBAC2C;}
	.st2{fill:#FFFFFF;}
	.st3{fill:#F78E36;}
	.st4{fill:#F3F3F3;}
</style>
<path class="st0" d="M417,386.5H95c-12.2,0-22.1-9.9-22.1-22.1V171h366.2v193.5C439.1,376.6,429.2,386.5,417,386.5z"/>
<path class="st1" d="M417,171v215.6c12.2,0,22.1-9.9,22.1-22.1V171L417,171z"/>
<g>
	<path class="st2" d="M147.2,240.2c-2.1-2.1-5.5-2.1-7.6,0l-33.2,33.2c-2.1,2.1-2.1,5.5,0,7.6l32.8,32.8c1,1,2.4,1.6,3.8,1.6
		s2.7-0.5,3.8-1.6c2.1-2.1,2.1-5.5,0-7.6l-29-29l29.4-29.4C149.3,245.7,149.3,242.3,147.2,240.2L147.2,240.2z"/>
	<path class="st2" d="M262.1,273.5l-33.2-33.2c-2.1-2.1-5.5-2.1-7.6,0c-2.1,2.1-2.1,5.5,0,7.6l29.4,29.4l-29,29
		c-2.1,2.1-2.1,5.5,0,7.6c1,1,2.4,1.6,3.8,1.6c1.4,0,2.7-0.5,3.8-1.6l32.8-32.8C264.2,278.9,264.2,275.5,262.1,273.5L262.1,273.5z"
		/>
	<path class="st2" d="M205.8,220.3c-2.8-1.1-5.9,0.3-6.9,3.1l-39.3,103.5c-1.1,2.8,0.3,5.9,3.1,6.9c0.6,0.2,1.3,0.4,1.9,0.4
		c2.2,0,4.2-1.3,5-3.5l39.3-103.5C210,224.4,208.6,221.3,205.8,220.3L205.8,220.3z"/>
</g>
<path class="st1" d="M349.2,240.4h-34.6c-6.1,0-11.1-4.9-11.1-11.1c0-6.1,4.9-11.1,11.1-11.1h34.6c6.1,0,11.1,4.9,11.1,11.1
	C360.3,235.5,355.3,240.4,349.2,240.4z"/>
<path class="st2" d="M405.9,284.6h-91.4c-6.1,0-11.1-4.9-11.1-11.1c0-6.1,4.9-11.1,11.1-11.1h91.4c6.1,0,11.1,4.9,11.1,11.1
	C417,279.7,412.1,284.6,405.9,284.6z"/>
<path class="st3" d="M378.8,328.9h-64.2c-6.1,0-11.1-4.9-11.1-11.1c0-6.1,4.9-11.1,11.1-11.1h64.2c6.1,0,11.1,4.9,11.1,11.1
	C389.9,323.9,384.9,328.9,378.8,328.9z"/>
<path class="st1" d="M439.1,178.6H72.9v-31c0-12.2,9.9-22.1,22.1-22.1h322c12.2,0,22.1,9.9,22.1,22.1V178.6z"/>
<path class="st0" d="M417,125.5v53.1h22.1v-31C439.1,135.4,429.2,125.5,417,125.5z"/>
<circle class="st0" cx="108.3" cy="152.4" r="11.1"/>
<circle class="st4" cx="151.1" cy="152.4" r="11.1"/>
<circle class="st3" cx="194" cy="152.4" r="11.1"/>
</svg>
